<svg width="290" height="250" viewBox="0 0 290 250" fill="none" xmlns="http://www.w3.org/2000/svg">
<path d="M95.8103 43.935C95.8103 43.935 51.8637 66.3288 29.9455 100.833C8.02733 135.337 9.76153 179.713 36.3951 212.645C63.0287 245.578 113.935 241.28 156.56 262.16C199.184 283.04 246.21 278.736 266.365 234.517C286.52 190.298 256.128 173.751 250.908 122.589C245.688 71.427 199.561 -3.48001 95.8103 43.935Z" fill="#039BE5"/>
<path opacity="0.7" d="M99.9763 43.935C99.9763 43.935 56.0297 66.3288 34.1115 100.833C12.1933 135.337 13.9275 179.713 40.5611 212.645C67.1947 245.578 118.101 241.28 160.726 262.16C203.35 283.04 250.376 278.736 270.531 234.517C290.686 190.298 260.294 173.751 255.074 122.589C249.854 71.427 203.727 -3.48001 99.9763 43.935Z" fill="white"/>
<path d="M270.976 158.63H268.569V158.218C268.567 157.094 268.12 156.017 267.325 155.222C266.53 154.427 265.453 153.98 264.329 153.978H262.699C261.574 153.978 260.495 154.425 259.699 155.22C258.903 156.015 258.455 157.093 258.453 158.218V158.63H256.052C255.731 158.629 255.413 158.692 255.117 158.814C254.82 158.937 254.551 159.117 254.324 159.343C254.097 159.57 253.917 159.84 253.795 160.136C253.672 160.433 253.61 160.751 253.61 161.072V172.196C253.61 172.844 253.868 173.465 254.326 173.923C254.783 174.381 255.405 174.638 256.052 174.638H270.976C271.623 174.636 272.243 174.379 272.7 173.921C273.158 173.464 273.416 172.843 273.417 172.196V161.072C273.417 160.424 273.16 159.803 272.702 159.345C272.244 158.887 271.623 158.63 270.976 158.63ZM259.613 158.218C259.615 157.401 259.941 156.618 260.519 156.04C261.098 155.463 261.882 155.138 262.699 155.138H264.329C265.146 155.138 265.929 155.463 266.507 156.04C267.084 156.618 267.409 157.401 267.409 158.218V158.63H259.613V158.218Z" fill="#263238"/>
<path d="M267.96 165.497H264.886V162.429H262.136V165.497H259.062V168.252H262.136V171.32H264.886V168.252H267.96V165.497Z" fill="white"/>
<path d="M266.22 92.336C265.742 92.336 265.268 92.2418 264.827 92.0586C264.385 91.8755 263.984 91.6071 263.646 91.2688C263.308 90.9305 263.041 90.5289 262.858 90.0871C262.676 89.6452 262.582 89.1717 262.583 88.6936V78.88C262.582 78.402 262.676 77.9284 262.858 77.4866C263.041 77.0447 263.308 76.6431 263.646 76.3048C263.984 75.9665 264.385 75.6981 264.827 75.515C265.268 75.3319 265.742 75.2376 266.22 75.2376C266.698 75.2376 267.171 75.3319 267.613 75.515C268.054 75.6981 268.455 75.9665 268.793 76.3048C269.131 76.6431 269.399 77.0447 269.581 77.4866C269.763 77.9284 269.857 78.402 269.856 78.88V88.6762C269.859 89.1557 269.767 89.6311 269.586 90.075C269.405 90.5189 269.137 90.9225 268.799 91.2627C268.461 91.6028 268.059 91.8728 267.617 92.057C267.174 92.2412 266.699 92.336 266.22 92.336Z" fill="white" stroke="#263238" stroke-linecap="round" stroke-linejoin="round"/>
<path d="M266.22 92.336C265.742 92.336 265.268 92.2417 264.827 92.0586C264.385 91.8755 263.984 91.6071 263.646 91.2688C263.308 90.9305 263.041 90.5289 262.858 90.087C262.676 89.6452 262.582 89.1717 262.583 88.6936V83.7926H269.856V88.6936C269.857 89.1717 269.763 89.6452 269.581 90.087C269.399 90.5289 269.131 90.9305 268.793 91.2688C268.455 91.6071 268.054 91.8755 267.613 92.0586C267.171 92.2417 266.698 92.336 266.22 92.336Z" fill="#263238" stroke="#263238" stroke-linecap="round" stroke-linejoin="round"/>
<path d="M247.926 77.8824C247.627 77.509 247.405 77.0801 247.272 76.6204C247.14 76.1608 247.099 75.6794 247.153 75.2041C247.207 74.7287 247.354 74.2686 247.586 73.8504C247.819 73.4321 248.131 73.0639 248.506 72.7668L256.145 66.6304C256.901 66.0291 257.866 65.7525 258.826 65.8613C259.786 65.97 260.664 66.4552 261.266 67.2104C261.867 67.9659 262.144 68.9291 262.035 69.8883C261.926 70.8475 261.441 71.7243 260.686 72.326L253.042 78.4566C252.669 78.7552 252.24 78.9773 251.781 79.1101C251.321 79.2428 250.84 79.2837 250.365 79.2304C249.89 79.1771 249.43 79.0306 249.012 78.7993C248.593 78.568 248.224 78.2564 247.926 77.8824Z" fill="white" stroke="#263238" stroke-linecap="round" stroke-linejoin="round"/>
<path d="M247.926 77.8824C247.627 77.5089 247.405 77.0801 247.272 76.6204C247.14 76.1608 247.099 75.6794 247.153 75.204C247.207 74.7286 247.354 74.2686 247.586 73.8503C247.819 73.4321 248.131 73.0638 248.506 72.7668L252.329 69.6986L256.882 75.3768L253.059 78.4392C252.687 78.7415 252.258 78.967 251.797 79.1027C251.337 79.2384 250.854 79.2816 250.377 79.2298C249.9 79.178 249.438 79.0323 249.017 78.8011C248.596 78.5698 248.226 78.2576 247.926 77.8824Z" fill="#263238" stroke="#263238" stroke-linecap="round" stroke-linejoin="round"/>
<path d="M211.555 51.1792C211.102 51.1794 210.66 51.3214 210.291 51.5852L201.84 45.0254C202.254 44.2589 202.449 43.3928 202.401 42.5228C202.354 41.6528 202.068 40.8127 201.573 40.0954L206.735 33.495C207.172 33.6635 207.651 33.6876 208.103 33.564C208.555 33.4404 208.955 33.1754 209.245 32.8079C209.535 32.4404 209.7 31.9897 209.715 31.5217C209.731 31.0538 209.596 30.5932 209.331 30.2074C209.065 29.8215 208.684 29.5308 208.241 29.3776C207.799 29.2245 207.319 29.217 206.872 29.3563C206.425 29.4956 206.034 29.7743 205.757 30.1517C205.48 30.529 205.331 30.9852 205.332 31.4534C205.329 31.9046 205.469 32.3452 205.732 32.712L200.709 39.1442C200.036 38.577 199.217 38.2088 198.346 38.0807C197.475 37.9526 196.585 38.0698 195.777 38.4192C194.969 38.7685 194.274 39.3361 193.77 40.0584C193.266 40.7807 192.974 41.629 192.926 42.5082H187.056C186.992 41.9872 186.743 41.5065 186.354 41.1534C185.966 40.8004 185.464 40.5985 184.939 40.5843C184.414 40.5702 183.902 40.7448 183.495 41.0765C183.088 41.4081 182.813 41.8748 182.721 42.3916C182.629 42.9084 182.726 43.441 182.993 43.8928C183.261 44.3445 183.681 44.6853 184.179 44.8532C184.676 45.0211 185.217 45.0049 185.704 44.8077C186.19 44.6105 186.59 44.2453 186.83 43.7784H193.036C193.217 44.6217 193.625 45.3996 194.216 46.0283C194.807 46.657 195.557 47.1128 196.388 47.3466C197.218 47.5805 198.097 47.5835 198.928 47.3554C199.76 47.1273 200.514 46.6766 201.109 46.052L209.514 52.5886C209.348 53.0246 209.326 53.5022 209.451 53.9516C209.576 54.401 209.841 54.7987 210.208 55.0865C210.575 55.3743 211.025 55.5372 211.491 55.5514C211.957 55.5656 212.416 55.4303 212.8 55.1653C213.183 54.9003 213.472 54.5194 213.625 54.0785C213.777 53.6375 213.784 53.1594 213.645 52.7142C213.506 52.2689 213.228 51.8798 212.852 51.6036C212.476 51.3274 212.022 51.1787 211.555 51.1792Z" fill="#263238"/>
<path d="M39.8918 92.4056C39.1893 92.4041 38.516 92.1243 38.0192 91.6276C37.5225 91.1308 37.2427 90.4575 37.2412 89.755V67.715H42.5424V89.755C42.5424 90.458 42.2632 91.1322 41.7661 91.6293C41.269 92.1264 40.5948 92.4056 39.8918 92.4056Z" fill="white" stroke="#263238" stroke-linecap="round" stroke-linejoin="round"/>
<path d="M39.8918 92.4056C39.1893 92.404 38.516 92.1243 38.0192 91.6275C37.5225 91.1308 37.2427 90.4575 37.2412 89.755V76.2004H42.5424V89.755C42.5424 90.458 42.2632 91.1321 41.7661 91.6292C41.269 92.1263 40.5948 92.4056 39.8918 92.4056Z" fill="#263238" stroke="#263238" stroke-linecap="round" stroke-linejoin="round"/>
<path d="M43.3023 66.4274H36.4873V68.3588H43.3023V66.4274Z" fill="white" stroke="#263238" stroke-linecap="round" stroke-linejoin="round"/>
<path d="M31.8586 92.4056C31.1561 92.4041 30.4828 92.1243 29.986 91.6276C29.4893 91.1308 29.2095 90.4575 29.208 89.755V67.715H34.5092V89.755C34.5092 90.458 34.2299 91.1322 33.7329 91.6293C33.2358 92.1264 32.5616 92.4056 31.8586 92.4056Z" fill="white" stroke="#263238" stroke-linecap="round" stroke-linejoin="round"/>
<path d="M31.8586 92.4056C31.1561 92.404 30.4828 92.1243 29.986 91.6275C29.4893 91.1308 29.2095 90.4575 29.208 89.755V76.2004H34.5092V89.755C34.5092 90.458 34.2299 91.1321 33.7329 91.6292C33.2358 92.1263 32.5616 92.4056 31.8586 92.4056Z" fill="#263238" stroke="#263238" stroke-linecap="round" stroke-linejoin="round"/>
<path d="M35.2691 66.4274H28.4541V68.3588H35.2691V66.4274Z" fill="white" stroke="#263238" stroke-linecap="round" stroke-linejoin="round"/>
<path d="M108.332 44.7006L110.443 39.6314C110.479 39.5497 110.539 39.4807 110.614 39.4331C110.689 39.3856 110.777 39.3617 110.867 39.3646C110.956 39.3691 111.042 39.401 111.112 39.456C111.183 39.511 111.235 39.5864 111.261 39.672L113.819 48.1052L115.768 41.8934C115.794 41.806 115.848 41.7293 115.921 41.6741C115.994 41.6189 116.082 41.5881 116.174 41.586C116.264 41.5885 116.351 41.6172 116.426 41.6687C116.5 41.7202 116.557 41.7923 116.591 41.876L117.676 44.9964H123.54C124.74 43.7423 125.437 42.0911 125.5 40.3564C125.511 38.7361 124.923 37.1689 123.849 35.9556C122.775 34.7423 121.291 33.9686 119.681 33.7831C118.072 33.5975 116.45 34.0132 115.128 34.9502C113.806 35.8873 112.877 37.2797 112.52 38.86C112.151 37.2908 111.219 35.9117 109.9 34.9851C108.581 34.0585 106.967 33.649 105.366 33.8344C103.765 34.0199 102.288 34.7874 101.215 35.991C100.143 37.1946 99.5508 38.7503 99.5508 40.3622C99.6152 41.9687 100.218 43.5069 101.262 44.7296L108.332 44.7006Z" fill="#263238"/>
<path d="M117.369 45.8664C117.278 45.8668 117.19 45.839 117.117 45.7871C117.043 45.7351 116.987 45.6615 116.957 45.5764L116.203 43.4072L114.225 49.7118C114.197 49.8006 114.141 49.8782 114.066 49.9334C113.991 49.9886 113.901 50.0187 113.807 50.0192C113.714 50.0189 113.623 49.9882 113.549 49.9316C113.475 49.8751 113.421 49.7959 113.396 49.706L110.78 41.0814L109.04 45.3038C109.007 45.3827 108.951 45.4501 108.88 45.4976C108.809 45.545 108.725 45.5704 108.64 45.5706H101.964C103.396 47.1714 105.183 48.5866 106.517 49.9032C108.535 51.8984 110.513 53.9632 112.572 55.8888C115.211 53.2846 117.867 50.6688 120.483 48.0646C121.208 47.3396 121.997 46.6204 122.728 45.8664H117.369Z" fill="#263238"/>
<path d="M19.5271 175.504L22.3711 176.491L25.4484 167.619L22.6044 166.633L19.5271 175.504Z" fill="white" stroke="#263238" stroke-miterlimit="10"/>
<path d="M18.1791 176.913L22.5684 178.435L23.1481 176.764L18.7588 175.241L18.1791 176.913Z" fill="white" stroke="#263238" stroke-miterlimit="10"/>
<path d="M19.4686 168.916L26.499 171.354L32.0739 155.282L25.0434 152.844L19.4686 168.916Z" fill="white" stroke="#263238" stroke-miterlimit="10"/>
<path d="M22.8869 162.04L28.0762 163.84L31.1535 154.969L25.9642 153.169L22.8869 162.04Z" fill="#263238" stroke="#263238" stroke-miterlimit="10"/>
<path d="M21.9695 168.471L24.8135 169.458L27.8908 160.586L25.0468 159.6L21.9695 168.471Z" fill="#263238" stroke="#263238" stroke-miterlimit="10"/>
<path d="M18.9726 168.747L27.0059 171.533L27.7034 169.522L19.6702 166.736L18.9726 168.747Z" fill="white" stroke="#263238" stroke-miterlimit="10"/>
<path d="M26.7578 152.509L30.9443 153.961L31.8738 151.281L27.6873 149.829L26.7578 152.509Z" fill="white" stroke="#263238" stroke-miterlimit="10"/>
<path d="M24.371 153.176L32.4043 155.963L33.1019 153.951L25.0686 151.165L24.371 153.176Z" fill="white" stroke="#263238" stroke-miterlimit="10"/>
<path d="M29.8232 150.191L33.1872 140.482" stroke="#263238" stroke-miterlimit="10"/>
<path d="M193.459 109.318C193.459 109.318 189.353 111.83 189.399 112.932C189.445 114.034 187.868 134.131 187.688 136.642C187.508 139.154 185.119 144.339 184.933 146.694C184.747 149.048 185.339 151.409 186.029 152.494C186.719 153.578 189.254 157.047 189.254 157.047L196.069 146.52C196.236 144.221 196.271 141.915 196.173 139.612C196.069 134.595 193.459 109.318 193.459 109.318Z" fill="white" stroke="#263238" stroke-linecap="round" stroke-linejoin="round"/>
<path d="M219.681 59.5196C219.681 59.5196 212.431 59.0556 208.302 64.0842C204.172 69.1128 205.059 76.8036 205.03 79.1642C205.001 81.5248 197.989 88.4442 198.766 91.263C199.544 94.0818 201.608 94.4008 200.947 96.7556C200.286 99.1104 195.971 100.526 196.597 103.513C197.224 106.5 199.497 110.734 199.497 110.734L241.257 111.018C241.257 111.018 242.748 106.621 241.159 103.321C239.569 100.021 237.313 98.9306 237.679 97.3588C238.044 95.787 240.062 92.017 239.285 89.1924C238.508 86.3678 235.805 85.5848 235.521 80.5562C235.237 75.5276 234.494 67.2162 230.504 63.1562C226.514 59.0962 219.681 59.5196 219.681 59.5196Z" fill="#263238" stroke="#263238" stroke-linecap="round" stroke-linejoin="round"/>
<path d="M194.225 170.404C194.225 170.404 195.193 203.064 196.481 209.502C197.768 215.94 203.516 252.839 203.516 252.839C205.273 253.583 207.165 253.954 209.073 253.93H215.354L215.934 226.449L216.149 186.563L219.298 254.081C219.298 254.081 227.952 254.388 228.885 254.231C229.819 254.075 230.596 253.918 230.596 253.918L236.159 211.201L239.343 182.781L239.517 171.477C239.517 171.477 212.93 170.555 205.204 169.928C197.478 169.302 194.3 169.145 194.3 169.145L194.225 170.404Z" fill="#039BE5" stroke="#263238" stroke-linecap="round" stroke-linejoin="round"/>
<path d="M230.127 228.068C230.057 228.613 229.987 229.117 229.906 229.581" stroke="#263238" stroke-linecap="round" stroke-linejoin="round"/>
<path d="M230.84 188.749C230.84 188.749 231.379 212.019 230.434 224.651" stroke="#263238" stroke-linecap="round" stroke-linejoin="round"/>
<path d="M202.333 186.882C202.333 186.882 203 202.275 203.661 205.726" stroke="#263238" stroke-linecap="round" stroke-linejoin="round"/>
<path d="M227.116 177.074V188.825C228.622 189.23 230.161 189.496 231.716 189.619C234.099 189.776 238.548 189.619 238.548 189.619L238.867 185.171L227.116 177.074Z" fill="#263238" stroke="#263238" stroke-linecap="round" stroke-linejoin="round"/>
<path d="M194.717 186.122C194.717 186.122 200.755 188.03 203.296 188.187C205.836 188.343 208.214 188.662 208.214 188.662L207.901 185.49L194.398 184.22L194.717 186.122Z" fill="#263238" stroke="#263238" stroke-linecap="round" stroke-linejoin="round"/>
<path d="M213.045 96.9006L208.307 102.242L195.164 111.83L197.965 169.94C197.965 169.94 208.44 172.759 217.43 173.542C226.42 174.325 237.98 172.266 237.98 172.266L236.28 111.366C236.28 111.366 231.165 103.826 228.543 101.79C225.921 99.7542 224.721 97.8692 221.247 97.556C217.772 97.2428 213.045 96.9006 213.045 96.9006Z" fill="#039BE5" stroke="#263238" stroke-linecap="round" stroke-linejoin="round"/>
<path d="M207.547 99.76L193.459 109.347L195.669 144.675L194.921 148.225L188.999 155.046L191.522 167.028L190.397 183.935C190.397 183.935 195.994 185.82 199.787 186.284C202.611 186.587 205.449 186.744 208.29 186.754L208.777 163.67C208.777 163.67 210.65 125.35 210.871 123.65C211.091 121.951 213.046 96.9702 213.046 96.9702L207.547 99.76Z" fill="white" stroke="#263238" stroke-linecap="round" stroke-linejoin="round"/>
<path d="M207.773 101.204L200.952 118.308L208.312 121.365L201.364 122.629L207.518 146.74" stroke="#263238" stroke-linecap="round" stroke-linejoin="round"/>
<path d="M211.862 92.3477C211.862 92.3477 214.31 108.675 216.236 112.445C218.161 116.215 218.706 117.467 218.706 117.467C218.706 117.467 222.894 104.742 223.735 102.857C224.576 100.972 225.475 94.2211 225.475 94.2211C225.475 94.2211 217.129 96.8949 211.862 92.3477Z" fill="white" stroke="#263238" stroke-linecap="round" stroke-linejoin="round"/>
<path d="M211.862 92.3477C211.862 92.3477 212.083 93.8325 212.442 96.0075C213.666 96.9413 216.908 99.2497 219.304 99.3715C221.131 99.4643 223.451 98.2811 224.994 97.3357C225.272 95.6247 225.463 94.2211 225.463 94.2211C225.463 94.2211 217.129 96.8949 211.862 92.3477Z" fill="#263238" stroke="#263238" stroke-linecap="round" stroke-linejoin="round"/>
<path d="M208.539 81.0608C208.539 81.0608 206.869 78.6828 205.744 81.0608C204.619 83.4388 207.484 86.9594 208.284 87.4408C210.558 88.7922 209.955 86.2808 209.955 86.2808L208.539 81.0608Z" fill="white" stroke="#263238" stroke-linecap="round" stroke-linejoin="round"/>
<path d="M229.285 82.0874C229.285 82.0874 230.695 79.6282 232.075 81.9482C233.455 84.2682 230.967 87.9164 230.225 88.4326C228.102 89.9 228.438 87.3829 228.438 87.3829L229.285 82.0874Z" fill="white" stroke="#263238" stroke-linecap="round" stroke-linejoin="round"/>
<path d="M208.145 78.9612C208.145 78.9612 214.2 77.546 217.251 75.7422C219.119 74.6136 220.749 73.1299 222.047 71.3748C222.047 71.3748 224.669 76.328 226.977 78.3348C229.286 80.3416 229.767 80.4576 229.767 80.4576C229.767 80.4576 228.659 89.1286 227.406 92.1446C226.154 95.1606 222.065 98.0954 218.248 97.2486C216.079 96.773 212.321 95.207 211.23 92.568C210.14 89.929 208.145 78.9612 208.145 78.9612Z" fill="white" stroke="#263238" stroke-linecap="round" stroke-linejoin="round"/>
<path d="M223.596 85.6255C221.717 85.6719 215.424 85.6835 212.176 83.7231C210.874 82.9652 209.655 82.0729 208.539 81.0609C208.655 81.6409 208.794 82.3659 208.945 83.1199L209.653 83.6361L211.427 90.3409L210.598 90.5207C210.773 91.2061 210.984 91.8817 211.23 92.5449C212.321 95.1839 216.079 96.7499 218.248 97.2255C222.059 98.0665 226.136 95.1491 227.401 92.1389C227.102 91.554 227.014 90.8843 227.151 90.2423C227.517 88.3457 227.969 85.0223 227.969 85.0223L229.262 83.8623C229.332 83.4389 229.39 83.0329 229.448 82.6617C227.882 83.7463 224.947 85.5907 223.596 85.6255Z" fill="#039BE5" stroke="#263238" stroke-linecap="round" stroke-linejoin="round"/>
<path d="M216.688 82.824C216.688 82.824 214.664 80.3648 212.008 80.591" stroke="#263238" stroke-linecap="round" stroke-linejoin="round"/>
<path d="M221.902 83.3112C222.548 82.6322 223.351 82.1217 224.239 81.8244C225.128 81.5272 226.076 81.4522 227.001 81.606" stroke="#263238" stroke-linecap="round" stroke-linejoin="round"/>
<path d="M210.842 79.3614C210.842 79.3614 213.742 78.2014 216.311 78.7466" stroke="#263238" stroke-linecap="round" stroke-linejoin="round"/>
<path d="M222.14 79.3788C222.904 78.9884 223.769 78.8425 224.619 78.9608C225.469 79.0791 226.262 79.4558 226.89 80.04" stroke="#263238" stroke-linecap="round" stroke-linejoin="round"/>
<path d="M214.739 82.0179C214.752 82.107 214.747 82.1978 214.725 82.2852C214.703 82.3726 214.664 82.4547 214.61 82.5269C214.556 82.5991 214.489 82.66 214.411 82.706C214.334 82.752 214.248 82.7823 214.159 82.7951C213.977 82.7746 213.81 82.686 213.692 82.547C213.573 82.4081 213.512 82.2293 213.521 82.0469C213.507 81.9576 213.511 81.8665 213.533 81.7788C213.554 81.6912 213.593 81.6087 213.647 81.5363C213.701 81.4639 213.769 81.4031 213.847 81.3573C213.925 81.3115 214.011 81.2817 214.101 81.2697C214.282 81.2914 214.448 81.3804 214.566 81.5191C214.684 81.6577 214.746 81.8358 214.739 82.0179Z" fill="#263238"/>
<path d="M225.243 82.7718C225.258 82.8613 225.255 82.9529 225.234 83.0413C225.213 83.1296 225.174 83.2127 225.12 83.2854C225.066 83.3582 224.997 83.4191 224.919 83.4644C224.84 83.5097 224.753 83.5385 224.663 83.549C224.482 83.53 224.315 83.4425 224.196 83.3045C224.078 83.1665 224.016 82.9884 224.025 82.8066C224.009 82.7172 224.012 82.6255 224.033 82.5372C224.054 82.4489 224.093 82.3658 224.147 82.293C224.201 82.2203 224.27 82.1594 224.349 82.114C224.427 82.0687 224.514 82.0399 224.605 82.0294C224.786 82.0485 224.952 82.1359 225.071 82.2739C225.19 82.4119 225.251 82.5901 225.243 82.7718Z" fill="#263238"/>
<path d="M240.862 105.989C240.862 105.989 244.244 107.555 245.502 110.049C246.761 112.543 256.824 139.565 256.778 141.607C256.731 143.649 253.402 146.003 250.281 146.322C247.161 146.641 242.614 140.986 241.935 140.047C241.257 139.107 241.135 128.11 241.135 128.11L240.862 105.989Z" fill="white" stroke="#263238" stroke-linecap="round" stroke-linejoin="round"/>
<path d="M224.924 98.774L226.571 152.795L227.151 186.87C230.309 187.647 233.545 188.065 236.796 188.117C239.509 188.174 242.205 187.693 244.731 186.702C244.731 186.702 243.745 165.503 243.571 162.046C243.397 158.589 242.248 151.995 242.248 151.995L240.88 105.989C240.88 105.989 228.137 100.027 224.924 98.774Z" fill="white" stroke="#263238" stroke-linecap="round" stroke-linejoin="round"/>
<path d="M228.543 101.755L234.384 120.808L229.059 122.252L234.239 124.764L227.777 145.29" fill="white"/>
<path d="M228.543 101.755L234.384 120.808L229.059 122.252L234.239 124.764L227.777 145.29" stroke="#263238" stroke-linecap="round" stroke-linejoin="round"/>
<path d="M232.614 119.184L225.37 153.891C225.37 153.891 230.323 155.457 233.943 155.631C237.562 155.805 245.102 155.782 245.102 155.782L252.642 123.43C252.642 123.43 237.8 122.009 232.614 119.184Z" fill="#263238" stroke="#263238" stroke-linecap="round" stroke-linejoin="round"/>
<path d="M235.138 151.531L235.375 140.685L241.123 141.897C241.123 141.897 237.324 150.266 235.138 151.531Z" fill="white" stroke="#263238" stroke-linecap="round" stroke-linejoin="round"/>
<path d="M239.54 136.764C239.54 136.764 238.009 134.572 237.516 134.096C237.023 133.62 234.587 132.217 234.117 132.217C233.647 132.217 231.124 132.06 230.637 132.06C230.15 132.06 229.599 133.162 230.098 133.632C230.597 134.102 232.331 134.258 232.331 134.258L233.52 135.998L228.155 135.529C228.155 135.529 227.262 136.474 227.465 137.269C227.616 137.807 227.81 138.333 228.045 138.84C228.024 139.994 228.084 141.147 228.224 142.291C228.433 143.237 229.384 143.55 230.689 144.333C231.994 145.116 236.362 144.646 236.362 144.646H238.38L239.54 136.764Z" fill="white" stroke="#263238" stroke-linecap="round" stroke-linejoin="round"/>
<path d="M252.619 137.854L238.699 135.981C238.699 135.981 237.614 144.936 236.518 147.917C235.422 150.899 235.138 151.531 235.138 151.531C235.138 151.531 249.725 151.206 253.164 150.893C256.603 150.58 258.535 148.532 258.384 145.708C258.233 142.883 256.511 140.053 256.511 140.053" fill="white"/>
<path d="M252.619 137.854L238.699 135.981C238.699 135.981 237.614 144.936 236.518 147.917C235.422 150.899 235.138 151.531 235.138 151.531C235.138 151.531 249.725 151.206 253.164 150.893C256.603 150.58 258.535 148.532 258.384 145.708C258.233 142.883 256.511 140.053 256.511 140.053" stroke="#263238" stroke-linecap="round" stroke-linejoin="round"/>
<path d="M194.573 147.633C194.573 147.633 197.821 149.669 198.633 150.301C199.445 150.933 199.514 155.011 200.03 155.794C200.547 156.577 199.938 157.052 198.998 157.052C198.058 157.052 196.637 154.071 196.637 154.071L196.579 152.969L189.944 155.173L188.204 152.192C188.204 152.192 190.176 147.633 194.573 147.633Z" fill="white" stroke="#263238" stroke-linecap="round" stroke-linejoin="round"/>
<path d="M169.939 101.378C169.939 101.378 173.918 121.348 174.626 125.042C175.333 128.737 176.633 137.518 178.106 141.369C179.579 145.22 179.098 150.15 178.361 151.537C177.622 152.741 176.774 153.875 175.826 154.924L170.885 148.48C170.885 148.48 167.944 116.905 167.834 112.433C167.724 107.961 169.939 101.378 169.939 101.378Z" fill="white" stroke="#263238" stroke-linecap="round" stroke-linejoin="round"/>
<path d="M172.562 147.691C172.562 147.691 175.694 149.646 176.245 150.475C176.796 151.305 177.19 152.36 176.761 153.259C176.332 154.158 173.994 156.873 173.403 157.4C172.811 157.928 172.312 155.823 172.243 154.013C172.173 152.204 172.562 147.691 172.562 147.691Z" fill="white" stroke="#263238" stroke-linecap="round" stroke-linejoin="round"/>
<path d="M167.33 179.104C167.33 179.104 162.69 214.838 161.883 220.075C161.077 225.313 158.519 233.63 157.139 239.946C156.357 243.661 155.776 247.415 155.399 251.192C155.258 252.267 155.283 253.356 155.474 254.423C155.672 255.966 155.701 257.195 155.701 257.195C153.635 257.713 151.533 258.074 149.413 258.274C146.798 258.431 143.254 258.431 143.254 258.431L142.094 248.42C142.094 248.42 142.958 233.63 143.468 229.32C143.979 225.011 144.524 191.122 144.501 190.194C144.478 189.266 144.275 181.105 144.275 181.105L160.08 179.411C160.08 179.411 162.237 173.252 165.479 173.559C168.722 173.867 167.33 179.104 167.33 179.104Z" fill="white" stroke="#263238" stroke-linecap="round" stroke-linejoin="round"/>
<path d="M165.502 173.559C162.26 173.252 160.103 179.411 160.103 179.411L144.28 181.105C144.28 181.105 144.332 183.274 144.385 185.501C146.072 185.652 147.633 185.739 148.967 185.739C154.036 185.731 159.101 185.446 164.139 184.887L164.818 177.787L165.879 185.02L166.61 184.782C167.063 181.337 167.353 179.092 167.353 179.092C167.353 179.092 168.745 173.867 165.502 173.559Z" fill="#263238" stroke="#263238" stroke-linecap="round" stroke-linejoin="round"/>
<path d="M127.773 180.183C127.773 180.183 127.773 180.403 127.808 180.803C128.023 185.014 129.299 209.415 129.687 213.916C130.122 218.846 127.947 224.234 128.058 228.7C128.168 233.166 129.218 257.352 129.218 257.352L130.378 261.354C130.378 261.354 133.104 259.509 135.719 259.509C138.335 259.509 142.679 259.66 142.679 259.66C142.679 259.66 142.906 256.424 142.882 255.351C142.859 254.278 142.761 250.421 142.761 250.421C142.761 250.421 147.186 230.243 147.453 228.549C147.72 226.855 151.153 197.589 151.13 196.649C151.107 195.709 151.855 182.63 151.855 182.63L127.773 180.183Z" fill="white" stroke="#263238" stroke-linecap="round" stroke-linejoin="round"/>
<path d="M151.693 185.71C151.791 183.924 151.861 182.648 151.861 182.648L127.773 180.183C127.773 180.183 127.773 180.403 127.808 180.803C127.808 181.314 127.872 182.12 127.93 183.123C133.562 184.133 143.335 185.722 148.967 185.722C149.895 185.739 150.799 185.728 151.693 185.71Z" fill="#263238" stroke="#263238" stroke-linecap="round" stroke-linejoin="round"/>
<path d="M145.521 85.608C145.521 85.608 142.975 86.0372 142.007 87.174C141.036 88.2798 140.163 89.4674 139.397 90.7236C139.263 91.1528 124.288 100.241 124.288 100.241L125.366 143.579C125.366 143.579 125.813 150.255 125.018 152.528C123.676 156.999 123.025 161.648 123.087 166.315C123.226 171.854 123.586 180.815 123.586 180.815C123.586 180.815 140.725 184.225 148.967 184.225C154.036 184.213 159.101 183.925 164.139 183.361L164.818 176.256L165.85 183.506L169.371 182.346L172.271 160.886C172.271 160.886 174.289 156.339 174.266 155.341C174.243 154.344 174.777 153.068 174.191 152.215C173.605 151.363 172.561 149.657 172.561 149.657C172.561 149.657 169.939 102.66 169.939 101.378C169.939 100.096 162.185 92.5738 161.611 92.2896C161.036 92.0054 157.498 86.7448 152.911 85.3296C148.323 83.9144 145.521 85.608 145.521 85.608Z" fill="white" stroke="#263238" stroke-linecap="round" stroke-linejoin="round"/>
<path d="M140.853 92.1446L139.136 107.752L146.189 111.029L144.425 116.325L162.063 147.32" stroke="#263238" stroke-linecap="round" stroke-linejoin="round"/>
<path d="M160.556 93.8962L165.845 106.244L163.577 109.266L167.359 114.556L165.845 148.579" stroke="#263238" stroke-linecap="round" stroke-linejoin="round"/>
<path d="M144.866 87.7424C144.995 90.7874 145.547 93.7995 146.508 96.6919C148.033 100.955 158.142 130.367 158.142 130.367L164.679 153.381C164.679 153.381 163.815 129.937 163.792 128.946C163.768 127.954 158.838 95.4101 158.838 95.4101C158.838 95.4101 157.997 90.1552 156.669 88.1658C155.341 86.1764 146.438 82.4819 144.866 87.7424Z" fill="#039BE5" stroke="#263238" stroke-linecap="round" stroke-linejoin="round"/>
<path d="M144.24 85.4688C144.24 85.4688 140.127 85.8922 140.852 92.1446C141.577 98.397 142.534 102.66 142.534 102.66" stroke="#263238" stroke-width="2" stroke-linecap="round" stroke-linejoin="round"/>
<path d="M142.03 110.902C142.03 110.902 143.77 118.146 144.959 120.135C146.148 122.125 149.744 124.114 152.302 124.114" stroke="#263238" stroke-linecap="round" stroke-linejoin="round"/>
<path d="M147.528 109.197C147.528 109.197 149.442 117.578 149.761 119.144C150.08 120.71 149.025 123.685 147.25 126.684" stroke="#263238" stroke-linecap="round" stroke-linejoin="round"/>
<path d="M146.74 127.675C146.557 127.575 146.422 127.406 146.363 127.206C146.304 127.006 146.327 126.791 146.426 126.608L146.629 126.237C146.679 126.148 146.747 126.07 146.827 126.008C146.907 125.946 146.999 125.9 147.098 125.873C147.196 125.847 147.298 125.84 147.399 125.854C147.5 125.868 147.597 125.901 147.685 125.953C147.868 126.053 148.003 126.222 148.063 126.421C148.123 126.621 148.101 126.836 148.004 127.02L147.801 127.385C147.751 127.475 147.684 127.553 147.603 127.616C147.522 127.68 147.43 127.726 147.331 127.753C147.232 127.78 147.129 127.787 147.028 127.774C146.926 127.76 146.828 127.727 146.74 127.675Z" fill="#263238"/>
<path d="M153.253 124.271C153.253 124.373 153.233 124.474 153.193 124.568C153.153 124.663 153.094 124.748 153.02 124.819C152.947 124.89 152.86 124.945 152.764 124.981C152.668 125.018 152.566 125.035 152.464 125.031H152.041C151.832 125.026 151.634 124.94 151.488 124.79C151.343 124.64 151.262 124.439 151.264 124.23C151.263 124.128 151.283 124.027 151.322 123.933C151.361 123.839 151.419 123.754 151.493 123.683C151.566 123.612 151.653 123.556 151.748 123.52C151.843 123.483 151.945 123.466 152.047 123.47H152.47C152.679 123.476 152.877 123.563 153.023 123.713C153.169 123.862 153.252 124.062 153.253 124.271Z" fill="#263238"/>
<path d="M142.042 111.47L141.068 105.293C140.959 104.656 141.097 104.002 141.453 103.463C141.81 102.924 142.359 102.542 142.987 102.393C143.665 102.239 144.376 102.354 144.971 102.713C145.565 103.072 145.998 103.648 146.177 104.319L147.842 110.467" stroke="#263238" stroke-width="2" stroke-linecap="round" stroke-linejoin="round"/>
<path d="M164.968 115.645C166.364 115.505 167.365 114.087 167.204 112.477C167.043 110.868 165.78 109.676 164.384 109.816C162.988 109.956 161.987 111.374 162.148 112.984C162.31 114.593 163.572 115.785 164.968 115.645Z" fill="white" stroke="#263238" stroke-linecap="round" stroke-linejoin="round"/>
<path d="M157.835 88.073C157.835 88.073 163.42 95.932 165.201 111.952" stroke="#263238" stroke-width="2" stroke-linecap="round" stroke-linejoin="round"/>
<path d="M165.35 113.806C166.112 113.735 166.663 112.957 166.58 112.067C166.497 111.177 165.812 110.513 165.05 110.584C164.288 110.655 163.737 111.433 163.82 112.323C163.902 113.213 164.587 113.877 165.35 113.806Z" fill="white" stroke="#263238" stroke-linecap="round" stroke-linejoin="round"/>
<path d="M173.512 148.915C173.17 149.977 172.889 151.057 172.671 152.151C172.671 152.615 172.561 154.002 171.477 153.688C170.392 153.375 170.717 147.836 170.856 147.221C170.995 146.607 173.634 148.596 173.634 148.596" fill="white"/>
<path d="M173.512 148.915C173.17 149.977 172.889 151.057 172.671 152.151C172.671 152.615 172.561 154.002 171.477 153.688C170.392 153.375 170.717 147.836 170.856 147.221C170.995 146.607 173.634 148.596 173.634 148.596" stroke="#263238" stroke-linecap="round" stroke-linejoin="round"/>
<path d="M138.307 144.008C139.271 144.539 140.349 144.832 141.45 144.861C143.155 144.861 146.27 144.281 147.413 144.577C148.555 144.872 151.473 148.55 151.473 148.55C151.473 148.55 152.343 149.402 151.931 149.831C151.519 150.261 150.678 150.991 150.098 150.539C149.518 150.087 146.618 147.697 146.618 147.697L139.304 150.684L136.3 149.118L138.307 144.008Z" fill="white" stroke="#263238" stroke-linecap="round" stroke-linejoin="round"/>
<path d="M127.107 99.2496C127.107 99.2496 122.287 99.8296 121.469 101.094C120.651 102.358 107.445 131.358 107.474 132.64C107.503 133.922 133.881 154.68 133.881 154.68L139.577 143.84L125.326 130.628L131.509 116.278" fill="white"/>
<path d="M127.107 99.2496C127.107 99.2496 122.287 99.8296 121.469 101.094C120.651 102.358 107.445 131.358 107.474 132.64C107.503 133.922 133.881 154.68 133.881 154.68L139.577 143.84L125.326 130.628L131.509 116.278" stroke="#263238" stroke-linecap="round" stroke-linejoin="round"/>
<path d="M135.998 159.918L149.93 160.202L149.86 151.537" stroke="#263238" stroke-linecap="round" stroke-linejoin="round"/>
<path d="M139.322 150.684L135.639 152.059" stroke="#263238" stroke-linecap="round" stroke-linejoin="round"/>
<path d="M143.52 79.3556C143.52 79.3556 145.104 91.7212 146.148 93.5656C147.192 95.41 154.616 102.799 154.616 102.799C154.616 102.799 156.936 94.279 157.197 92.2896C157.458 90.3002 157.661 82.3426 157.661 82.3426L143.491 78.3638L143.52 79.3556Z" fill="white" stroke="#263238" stroke-linecap="round" stroke-linejoin="round"/>
<path d="M143.52 79.3556C143.52 79.3556 143.706 80.8056 143.99 82.7834C145.101 83.8176 146.369 84.6674 147.748 85.3006C149.575 86.1068 154.447 86.5592 157.527 86.1996C157.608 84.1174 157.661 82.3426 157.661 82.3426L143.491 78.3638L143.52 79.3556Z" fill="#263238" stroke="#263238" stroke-linecap="round" stroke-linejoin="round"/>
<path d="M139.415 68.5618C139.415 68.5618 137.518 66.5724 136.578 68.8402C135.639 71.108 137.738 74.5242 138.858 74.6692C139.522 74.7558 140.197 74.7065 140.841 74.5242C140.841 74.5242 141.636 77.7954 142.367 78.7872C143.805 80.6059 145.648 82.0636 147.749 83.0444C150.336 84.2044 158.995 84.6162 160.092 83.0444C161.188 81.4726 161.124 73.0974 161.107 72.3898C161.089 71.6822 160.967 61.5554 160.967 61.5554C160.967 61.5554 161.745 58.0406 160.689 55.622C159.633 53.2034 149.037 49.822 146.375 51.2198C143.712 52.6176 140.644 55.0536 140.435 58.1798C140.227 61.306 140.354 66.4216 140.354 66.4216L139.415 68.5618Z" fill="white" stroke="#263238" stroke-linecap="round" stroke-linejoin="round"/>
<path d="M155.074 64.1538C155.074 64.1538 156.843 72.2738 156.437 73.2482C156.031 74.2226 154.761 74.24 153.171 73.3874C151.582 72.5348 152.412 71.398 152.412 71.398" stroke="#263238" stroke-linecap="round" stroke-linejoin="round"/>
<path d="M148.915 73.5324C148.915 73.5324 149.681 75.661 151.102 75.806C152.523 75.951 156.09 76.2294 156.09 76.2294" stroke="#263238" stroke-linecap="round" stroke-linejoin="round"/>
<path d="M143.84 64.438L144.066 67.8484C144.066 67.8484 145.365 68.5618 148.346 68.5618C151.328 68.5618 152.308 67.8484 152.308 67.8484L152.227 64.438C152.227 64.438 147.9 61.8802 143.84 64.438Z" stroke="#263238" stroke-linecap="round" stroke-linejoin="round"/>
<path d="M155.086 64.438L156.165 67.9934C156.165 67.9934 156.606 68.5734 159.593 68.5734C162.58 68.5734 163.56 67.86 163.56 67.86L163.473 64.4496C163.473 64.4496 159.14 61.8802 155.086 64.438Z" stroke="#263238" stroke-linecap="round" stroke-linejoin="round"/>
<path d="M152.244 64.438H155.086" stroke="#263238" stroke-linecap="round" stroke-linejoin="round"/>
<path d="M143.857 64.438L138.254 67.7092" stroke="#263238" stroke-linecap="round" stroke-linejoin="round"/>
<path d="M145.237 62.7328C145.237 62.7328 146.757 61.0276 150.202 62.4486" stroke="#263238" stroke-linecap="round" stroke-linejoin="round"/>
<path d="M155.607 62.7328C156.119 62.3223 156.736 62.0648 157.388 61.9899C158.039 61.915 158.699 62.0257 159.29 62.3094" stroke="#263238" stroke-linecap="round" stroke-linejoin="round"/>
<path d="M148.868 66.004C148.868 66.6304 148.642 67.164 148.329 67.164C148.016 67.164 147.749 66.6536 147.749 66.004C147.749 65.3544 147.975 64.844 148.294 64.844C148.613 64.844 148.857 65.3718 148.868 66.004Z" fill="#263238"/>
<path d="M157.963 65.859C157.963 66.4854 157.737 67.019 157.424 67.019C157.111 67.019 156.844 66.5086 156.844 65.859C156.844 65.2094 157.07 64.699 157.383 64.699C157.696 64.699 157.946 65.2326 157.963 65.859Z" fill="#263238"/>
<path d="M148.23 52.7162C148.23 52.7162 149.599 55.738 147.9 56.84C147.375 57.1435 146.78 57.3033 146.174 57.3033C145.568 57.3033 144.973 57.1435 144.449 56.84C144.9 57.4641 145.153 58.2103 145.172 58.9805C145.192 59.7508 144.978 60.5089 144.559 61.1552C143.726 62.5433 142.754 63.8433 141.659 65.0354C141.659 65.0354 141.966 68.7068 141.328 69.136C140.69 69.5652 138.95 68.9214 138.921 67.8426C138.892 66.7638 138.196 64.6062 138.167 63.5274C138.138 62.4486 137.639 59.6414 137.639 59.6414C137.639 59.6414 133.278 57.6984 135.592 55.3262C137.906 52.954 142.819 51.011 142.819 51.011C142.819 51.011 142.929 46.6958 145.916 45.4024C148.903 44.109 155.329 42.166 155.382 44.3236C155.463 45.434 155.264 46.5471 154.802 47.56C154.802 47.56 160.19 47.3454 163.948 51.04C167.707 54.7346 167.579 58.1624 165.636 58.1624C163.693 58.1624 163.061 58.5916 163.061 58.5916C163.061 58.5916 166.779 60.7492 164.865 61.828C162.951 62.9068 160.979 61.6134 160.979 61.6134C160.979 61.6134 161.802 60.1054 159.378 58.1334C156.953 56.1614 148.23 52.7162 148.23 52.7162Z" fill="#263238" stroke="#263238" stroke-linecap="round" stroke-linejoin="round"/>
<path d="M94.6211 122.455V128L102.683 131.695C102.683 131.695 103.524 128 102.851 121.446L94.6211 122.455Z" fill="#999999" stroke="#263238" stroke-linecap="round" stroke-linejoin="round"/>
<path d="M50.1406 168.026C50.1406 168.026 51.0628 202.681 51.5268 207.768C51.9908 212.854 53.3596 224.402 53.3596 225.04C53.3596 225.678 54.1252 251.227 54.1252 251.227L52.739 253.547L53.203 256.783L59.3626 258.013C62.4424 258.628 66.4502 259.556 67.065 258.941C67.6798 258.326 67.8364 257.091 68.1438 255.397C68.4512 253.704 69.066 250.618 68.4512 248.159C67.8364 245.7 69.2226 219.507 69.3792 218.892C69.5358 218.277 73.0796 192.978 73.0796 192.978C73.0796 192.978 75.3996 213.776 77.0816 220.087C78.7636 226.397 78.1604 235.799 78.7752 239.494C79.39 243.188 80.6254 255.67 80.782 256.592C80.9386 257.514 81.2402 258.912 81.2402 258.912C81.2402 258.912 88.9426 257.833 90.3288 257.213C91.7343 256.695 93.1768 256.284 94.644 255.983C94.644 255.983 95.1022 247.202 94.4874 243.658C94.0394 241.168 93.7816 238.647 93.716 236.118C93.716 235.039 94.4874 200.848 94.4874 200.848L93.716 167.73C93.716 167.73 72.923 169.888 64.9132 168.345C56.9034 166.802 50.2972 165.88 50.2972 165.88L50.1406 168.026Z" fill="#039BE5" stroke="#263238" stroke-linecap="round" stroke-linejoin="round"/>
<path d="M64.9248 168.333C56.915 166.796 50.2972 165.88 50.2972 165.88L50.1406 168.032C50.1406 168.032 50.1928 170.021 50.2798 173.107C53.9512 174.133 61.41 175.937 68.6194 175.937C76.2406 175.937 88.38 173.617 93.8436 172.509L93.7276 167.724C93.7276 167.724 72.9346 169.876 64.9248 168.333Z" fill="#263238" stroke="#263238" stroke-linecap="round" stroke-linejoin="round"/>
<path d="M91.6807 246.378C91.7793 247.44 91.8431 248.049 91.8431 248.049" stroke="#263238" stroke-linecap="round" stroke-linejoin="round"/>
<path d="M89.3203 176.158C89.3203 176.158 89.9003 205.923 89.9003 217.158C89.9003 224.93 90.8399 236.727 91.4199 243.258" stroke="#263238" stroke-linecap="round" stroke-linejoin="round"/>
<path d="M58.1445 174.476L59.5481 206.77" stroke="#263238" stroke-linecap="round" stroke-linejoin="round"/>
<path d="M59.2646 209.293V214.629" stroke="#263238" stroke-linecap="round" stroke-linejoin="round"/>
<path d="M66.567 86.6752C65.8087 86.6793 65.0622 86.8639 64.3894 87.2139C63.7167 87.5639 63.137 88.0692 62.6984 88.6878C61.7392 89.9535 60.6719 91.1334 59.5084 92.2142L45.7334 99.6092L47.079 152.192L47.5836 170.172C47.5836 170.172 58.1628 173.698 68.2432 173.698C78.3236 173.698 96.2978 169.638 96.2978 169.638C96.2978 169.638 94.7898 99.586 95.2944 99.586C95.799 99.586 85.3822 90.538 80.6784 88.16C75.9746 85.782 66.567 86.6752 66.567 86.6752Z" fill="#039BE5" stroke="#263238" stroke-linecap="round" stroke-linejoin="round"/>
<path d="M62.6396 93.032C62.6396 93.032 67.9756 102.863 70.2261 107.358C72.4765 111.853 76.6756 118.32 76.6756 118.32L83.6994 99.5048" stroke="#263238" stroke-linecap="round" stroke-linejoin="round"/>
<path d="M66.584 155.388L66.3114 147.54L50.46 146.618C50.46 146.618 50.6166 158.172 50.924 158.798" stroke="#263238" stroke-linecap="round" stroke-linejoin="round"/>
<path d="M66.7756 160.944L66.7002 158.74" stroke="#263238" stroke-linecap="round" stroke-linejoin="round"/>
<path d="M85.5675 159.709L85.1035 146.775C85.1035 146.775 90.6483 147.233 95.2709 144.153" stroke="#263238" stroke-linecap="round" stroke-linejoin="round"/>
<path d="M61.7994 115.954C62.2866 117.491 63.7714 118.395 65.1112 117.966C66.451 117.537 67.1296 115.942 66.6366 114.405C66.1436 112.868 64.6646 111.963 63.3248 112.392C61.985 112.822 61.3064 114.417 61.7994 115.954Z" stroke="#263238" stroke-linecap="round" stroke-linejoin="round"/>
<path d="M61.9554 89.0416C61.9554 89.0416 60.1748 95.8856 64.2232 114.463" stroke="#263238" stroke-width="2" stroke-linecap="round" stroke-linejoin="round"/>
<path d="M65.4706 115.101C65.3513 115.342 65.1654 115.543 64.935 115.681C64.7046 115.819 64.4394 115.888 64.1709 115.88C63.9024 115.872 63.6419 115.787 63.4203 115.636C63.1986 115.484 63.0252 115.272 62.9205 115.024C62.8158 114.777 62.7844 114.505 62.8298 114.24C62.8752 113.975 62.9957 113.729 63.1769 113.531C63.358 113.332 63.5923 113.19 63.8519 113.121C64.1114 113.052 64.3854 113.059 64.6412 113.141C65.0097 113.292 65.3034 113.583 65.4587 113.95C65.6139 114.317 65.6182 114.731 65.4706 115.101Z" stroke="#263238" stroke-linecap="round" stroke-linejoin="round"/>
<path d="M94.6215 98.6C94.6215 98.6 97.1387 100.45 97.3069 101.123C97.4751 101.796 106.042 122.287 106.042 122.287L93.6123 124.12L93.7805 112.021" fill="#039BE5"/>
<path d="M94.6215 98.6C94.6215 98.6 97.1387 100.45 97.3069 101.123C97.4751 101.796 106.042 122.287 106.042 122.287L93.6123 124.12L93.7805 112.021" stroke="#263238" stroke-linecap="round" stroke-linejoin="round"/>
<path d="M47.4149 98.9364C47.4149 98.9364 44.5556 99.2728 43.8828 101.454C43.21 103.634 38.3438 125.814 38.3438 125.814L56.1497 124.12L54.4678 107.486" fill="#039BE5"/>
<path d="M47.4149 98.9364C47.4149 98.9364 44.5556 99.2728 43.8828 101.454C43.21 103.634 38.3438 125.814 38.3438 125.814L56.1497 124.12L54.4678 107.486" stroke="#263238" stroke-linecap="round" stroke-linejoin="round"/>
<path d="M81.8086 87.9976C81.8086 87.9976 86.2224 90.5148 86.6574 96.7788C87.0924 103.043 86.6574 104.632 86.6574 104.632" stroke="#263238" stroke-width="2" stroke-linecap="round" stroke-linejoin="round"/>
<path d="M88.6533 112.653C88.6533 112.653 88.2589 120.06 87.4527 122.2C86.6465 124.34 83.4565 126.875 80.9277 127.281" stroke="#263238" stroke-linecap="round" stroke-linejoin="round"/>
<path d="M82.9399 111.853C82.9399 111.853 82.5861 120.396 82.5513 121.986C82.5165 123.575 84.1173 126.341 86.4141 128.992" stroke="#263238" stroke-linecap="round" stroke-linejoin="round"/>
<path d="M87.0732 129.923L87.1408 129.868C87.4567 129.612 87.5052 129.148 87.2489 128.832L86.9238 128.431C86.6676 128.115 86.2037 128.066 85.8877 128.323L85.8201 128.377C85.5042 128.634 85.4557 129.097 85.712 129.413L86.0371 129.814C86.2934 130.13 86.7572 130.179 87.0732 129.923Z" fill="#263238"/>
<path d="M80.0195 127.552L80.0357 127.637C80.1115 128.037 80.4969 128.3 80.8966 128.224L81.4037 128.128C81.8034 128.052 82.0661 127.667 81.9903 127.267L81.9741 127.181C81.8984 126.782 81.513 126.519 81.1133 126.595L80.6061 126.691C80.2064 126.767 79.9438 127.152 80.0195 127.552Z" fill="#263238"/>
<path d="M88.7403 113.216L88.5721 106.993C88.5564 106.343 88.2993 105.723 87.851 105.254C87.4027 104.784 86.7954 104.498 86.1477 104.452C85.4597 104.401 84.7795 104.624 84.2556 105.073C83.7317 105.522 83.4069 106.16 83.3521 106.848L82.8301 113.158" stroke="#263238" stroke-width="2" stroke-linecap="round" stroke-linejoin="round"/>
<path d="M103.188 127.496L99.1797 126.655L85.0683 124.306L65.2787 120.536L60.5865 118.465C60.5865 118.465 56.1495 112.665 55.7667 112.085C55.3839 111.505 50.3669 113.529 50.5467 114.301C50.7265 115.072 51.3181 122.78 51.7067 123.267C52.0953 123.755 56.4279 123.749 56.4279 123.749C56.4279 123.749 77.0991 133.725 77.9575 134.09C89.8881 139.119 95.6417 139.072 97.6775 139.403C99.7133 139.734 101.042 138.91 102.213 137.564C103.385 136.219 103.188 127.496 103.188 127.496Z" fill="#999999" stroke="#263238" stroke-linecap="round" stroke-linejoin="round"/>
<path d="M55.1642 112.004C55.1642 112.004 52.7572 112.102 49.1902 114.509C47.862 115.408 47.166 116.052 47.166 116.441C47.242 116.903 47.3725 117.355 47.5546 117.786C49.8672 116.673 52.2891 115.802 54.7814 115.188" fill="#999999"/>
<path d="M55.1642 112.004C55.1642 112.004 52.7572 112.102 49.1902 114.509C47.862 115.408 47.166 116.052 47.166 116.441C47.242 116.903 47.3725 117.355 47.5546 117.786C49.8672 116.673 52.2891 115.802 54.7814 115.188" stroke="#263238" stroke-linecap="round" stroke-linejoin="round"/>
<path d="M56.1261 118.175C56.1261 118.175 49.5779 119.811 48.5165 120.008C47.4551 120.205 47.2637 119.138 47.2637 118.755C47.2637 118.372 47.5537 117.786 48.7079 117.212C49.8621 116.638 55.6679 115.089 55.6679 115.089" fill="#999999"/>
<path d="M56.1261 118.175C56.1261 118.175 49.5779 119.811 48.5165 120.008C47.4551 120.205 47.2637 119.138 47.2637 118.755C47.2637 118.372 47.5537 117.786 48.7079 117.212C49.8621 116.638 55.6679 115.089 55.6679 115.089" stroke="#263238" stroke-linecap="round" stroke-linejoin="round"/>
<path d="M56.8051 121.162C56.8051 121.162 49.1897 121.933 48.6097 121.452C48.4323 121.259 48.2976 121.03 48.2147 120.781C48.1317 120.533 48.1023 120.269 48.1283 120.008L54.9723 118.558" fill="#999999"/>
<path d="M56.8051 121.162C56.8051 121.162 49.1897 121.933 48.6097 121.452C48.4323 121.259 48.2976 121.03 48.2147 120.781C48.1317 120.533 48.1023 120.269 48.1283 120.008L54.9723 118.558" stroke="#263238" stroke-linecap="round" stroke-linejoin="round"/>
<path d="M54.682 121.545L48.8066 121.835C48.8066 121.835 49.0908 122.705 49.3866 122.798C50.7786 123.141 52.1967 123.368 53.6264 123.476C54.564 123.507 55.4982 123.604 56.422 123.766" fill="#999999"/>
<path d="M54.682 121.545L48.8066 121.835C48.8066 121.835 49.0908 122.705 49.3866 122.798C50.7786 123.141 52.1967 123.368 53.6264 123.476C54.564 123.507 55.4982 123.604 56.422 123.766" stroke="#263238" stroke-linecap="round" stroke-linejoin="round"/>
<path d="M42.0381 125.477C42.0381 125.477 44.7235 137.077 45.3963 137.912C46.0691 138.748 51.6139 137.912 57.1587 136.23C62.7035 134.548 86.2225 124.474 86.2225 124.474L89.5807 125.141C89.5807 125.141 88.2351 120.942 85.8861 120.773C83.5371 120.605 56.1495 124.12 56.1495 124.12L42.0381 125.477Z" fill="#999999" stroke="#263238" stroke-linecap="round" stroke-linejoin="round"/>
<path d="M65.54 79.2802C65.54 79.2802 65.54 79.5296 65.54 79.953C65.5922 82.1628 65.8068 89.1808 66.3694 90.8744C67.0422 92.887 76.1134 109.858 76.8094 108.512C77.5054 107.167 81.6814 88.856 81.6814 88.856V81.635C81.6814 81.635 79.4948 83.4794 75.4638 83.4794C71.4328 83.4794 65.54 79.2802 65.54 79.2802Z" fill="#999999" stroke="#263238" stroke-linecap="round" stroke-linejoin="round"/>
<path d="M78.996 89.233C79.9367 88.6586 80.8359 88.019 81.6872 87.319V81.635C81.6872 81.635 79.5006 83.4794 75.4696 83.4794C71.4386 83.4794 65.54 79.2802 65.54 79.2802C65.54 79.2802 65.54 79.5296 65.54 79.953C65.54 80.7302 65.598 82.1048 65.6676 83.636C65.8267 83.891 66.0051 84.1333 66.2012 84.361C67.3612 85.7008 72.9176 89.0648 74.2632 89.4012C75.6088 89.7376 77.4822 90.0682 78.996 89.233Z" fill="#263238" stroke="#263238" stroke-linecap="round" stroke-linejoin="round"/>
<path d="M85.7178 69.5362C85.7178 69.5362 88.4032 68.0224 88.4032 70.8818C88.4032 73.7412 85.886 77.0994 85.886 77.0994L85.7178 69.5362Z" fill="#999999" stroke="#263238" stroke-linecap="round" stroke-linejoin="round"/>
<path d="M61.6945 69.7044C61.6945 69.7044 57.9941 68.6952 57.9941 72.0592C57.9941 75.4232 61.3581 77.5982 61.3581 77.5982H63.6781C63.6781 77.5982 65.0237 80.9622 66.2011 82.302C67.3785 83.6418 72.9175 87.0058 74.2631 87.3422C75.6087 87.6786 77.4531 88.015 78.9669 87.174C80.8688 85.9884 82.6214 84.5786 84.1869 82.9748C84.8597 82.1396 86.0371 76.4266 86.0371 76.4266C86.0371 76.4266 86.3735 66.178 85.7007 62.6516C85.0279 59.1252 80.6605 53.5804 74.6111 52.9076C68.5617 52.2348 62.8487 57.1068 62.0135 60.9696C61.1783 64.8324 61.6945 69.7044 61.6945 69.7044Z" fill="#999999" stroke="#263238" stroke-linecap="round" stroke-linejoin="round"/>
<path d="M72.6098 72.3956C72.6098 72.3956 71.4498 74.7446 73.4508 75.4174C75.4518 76.0902 77.9864 75.922 78.491 74.9128C78.9956 73.9036 78.1546 72.732 78.1546 72.732" stroke="#263238" stroke-linecap="round" stroke-linejoin="round"/>
<path d="M70.5977 76.5948C70.5977 76.5948 74.7969 80.1213 80.5099 76.7631" stroke="#263238" stroke-linecap="round" stroke-linejoin="round"/>
<path d="M72.9463 79.7848C72.9463 79.7848 76.4785 81.8032 78.8275 79.4484" stroke="#263238" stroke-linecap="round" stroke-linejoin="round"/>
<path d="M70.9338 70.3772C71.3982 70.3772 71.7748 69.7748 71.7748 69.0316C71.7748 68.2885 71.3982 67.686 70.9338 67.686C70.4693 67.686 70.0928 68.2885 70.0928 69.0316C70.0928 69.7748 70.4693 70.3772 70.9338 70.3772Z" fill="#263238"/>
<path d="M80.0052 68.8634C80.0052 69.6058 79.6282 70.209 79.1642 70.209C78.7002 70.209 78.3232 69.629 78.3232 68.8634C78.3232 68.0978 78.7002 67.5236 79.1642 67.5236C79.6282 67.5236 80.0052 68.121 80.0052 68.8634Z" fill="#263238"/>
<path d="M68.5791 67.1873C68.5791 67.1873 69.4201 65.8417 72.6391 66.3463" stroke="#263238" stroke-linecap="round" stroke-linejoin="round"/>
<path d="M77.8184 66.5144C77.8184 66.5144 79.3322 64.1596 81.687 66.5144" stroke="#263238" stroke-linecap="round" stroke-linejoin="round"/>
<path d="M85.718 62.64C85.4998 61.6424 85.1218 60.6866 84.5986 59.8096C84.4029 60.7395 84.3347 61.6917 84.3956 62.64C84.6392 63.8696 85.5034 65.5864 85.5034 66.4448C85.5034 67.3032 85.3758 70.7426 85.9906 70.2554C86.0515 70.1911 86.1006 70.1164 86.1356 70.035C86.174 67.5632 86.0344 65.0918 85.718 62.64Z" fill="#263238" stroke="#263238" stroke-linecap="round" stroke-linejoin="round"/>
<path d="M77.2735 55.68C78.352 55.6229 79.4255 55.4931 80.4867 55.2914C78.773 54.0086 76.7534 53.1967 74.6287 52.9366C68.5793 52.2638 62.8663 57.1358 62.0311 60.9986C61.1959 64.8614 61.6947 69.7334 61.6947 69.7334C61.6947 69.7334 63.0287 70.6614 63.5217 69.6812C64.0147 68.701 63.5217 67.1002 64.0147 65.3834C64.5077 63.6666 65.2385 62.8024 65.3603 61.451C65.4821 60.0996 64.6237 58.1392 65.1167 57.0314C65.6097 55.9236 68.6779 53.8414 70.6441 54.578C72.7595 55.3792 75.0126 55.7538 77.2735 55.68Z" fill="#263238" stroke="#263238" stroke-linecap="round" stroke-linejoin="round"/>
</svg>
