<svg width="290" height="290" viewBox="0 0 290 290" fill="none" xmlns="http://www.w3.org/2000/svg">
<path d="M44.6595 58C44.6595 58 32.4795 64.96 30.7395 82.36C28.9995 99.76 48.1395 124.12 51.0395 146.16C53.9395 168.2 30.7395 173.42 40.0195 201.26C49.2995 229.1 98.0195 235.48 124.12 224.46C150.22 213.44 162.4 185.6 201.26 185.6C240.12 185.6 267.96 167.62 265.64 127.6C263.32 87.58 254.62 75.4 223.3 52.2C191.98 29 82.9395 18.56 44.6595 58Z" fill="#F55D33"/>
<path opacity="0.7" d="M44.6595 58C44.6595 58 32.4795 64.96 30.7395 82.36C28.9995 99.76 48.1395 124.12 51.0395 146.16C53.9395 168.2 30.7395 173.42 40.0195 201.26C49.2995 229.1 98.0195 235.48 124.12 224.46C150.22 213.44 162.4 185.6 201.26 185.6C240.12 185.6 267.96 167.62 265.64 127.6C263.32 87.58 254.62 75.4 223.3 52.2C191.98 29 82.9395 18.56 44.6595 58Z" fill="white"/>
<path d="M233.508 45.5416H53.522C50.3892 45.5416 47.8496 48.0812 47.8496 51.214V178.269C47.8496 181.402 50.3892 183.941 53.522 183.941H233.508C236.64 183.941 239.18 181.402 239.18 178.269V51.214C239.18 48.0812 236.64 45.5416 233.508 45.5416Z" fill="#F55D33" stroke="#2E353A" stroke-width="1.50103" stroke-miterlimit="10"/>
<path d="M235.595 58.8352H51.4277V175.456H235.595V58.8352Z" fill="white" stroke="#2E353A" stroke-width="1.50103" stroke-miterlimit="10"/>
<path d="M61.0615 150.777H115.854" stroke="#2E353A" stroke-linecap="round" stroke-linejoin="round"/>
<path d="M70.1328 156.217H115.854" stroke="#2E353A" stroke-linecap="round" stroke-linejoin="round"/>
<path d="M61.0615 156.217H65.4115" stroke="#2E353A" stroke-linecap="round" stroke-linejoin="round"/>
<path d="M61.0615 161.658H115.854" stroke="#2E353A" stroke-linecap="round" stroke-linejoin="round"/>
<path d="M111.858 167.104H115.855" stroke="#2E353A" stroke-linecap="round" stroke-linejoin="round"/>
<path d="M61.0615 167.104H107.143" stroke="#2E353A" stroke-linecap="round" stroke-linejoin="round"/>
<path d="M188.418 68.3704H62.5873C60.7647 68.3704 59.2871 69.848 59.2871 71.6706V107.66C59.2871 109.482 60.7647 110.96 62.5873 110.96H188.418C190.241 110.96 191.719 109.482 191.719 107.66V71.6706C191.719 69.848 190.241 68.3704 188.418 68.3704Z" fill="#2E353A"/>
<path d="M188.424 68.6604C188.819 68.6604 189.21 68.7383 189.575 68.8897C189.94 69.041 190.271 69.2628 190.55 69.5424C190.829 69.822 191.051 70.1539 191.201 70.5191C191.352 70.8843 191.429 71.2756 191.428 71.6706V107.66C191.429 108.055 191.352 108.446 191.201 108.811C191.051 109.176 190.829 109.508 190.55 109.788C190.271 110.067 189.94 110.289 189.575 110.441C189.21 110.592 188.819 110.67 188.424 110.67H62.5638C61.7655 110.67 60.9998 110.353 60.4353 109.788C59.8708 109.224 59.5536 108.458 59.5536 107.66V71.6706C59.5536 70.8722 59.8708 70.1066 60.4353 69.5421C60.9998 68.9775 61.7655 68.6604 62.5638 68.6604H188.424ZM188.424 68.0804H62.5638C61.6121 68.0819 60.6998 68.4607 60.0269 69.1336C59.3539 69.8066 58.9752 70.7189 58.9736 71.6706V107.66C58.9752 108.611 59.3539 109.524 60.0269 110.197C60.6998 110.87 61.6121 111.248 62.5638 111.25H188.424C189.375 111.248 190.287 110.869 190.959 110.196C191.631 109.523 192.008 108.611 192.008 107.66V71.6706C192.008 70.7194 191.631 69.8071 190.959 69.134C190.287 68.4609 189.375 68.0819 188.424 68.0804Z" fill="#2E353A"/>
<path d="M164.963 68.6604C164.309 69.3434 163.524 69.887 162.654 70.2583C161.784 70.6296 160.849 70.8211 159.903 70.8211C158.957 70.8211 158.021 70.6296 157.152 70.2583C156.282 69.887 155.496 69.3434 154.842 68.6604H151.815L151.896 68.7996L150.8 69.9132C150.596 70.1185 150.482 70.3957 150.482 70.6846C150.482 70.9735 150.596 71.2507 150.8 71.456L152.244 72.9002C152.345 73.0023 152.465 73.0833 152.597 73.1386C152.73 73.1939 152.872 73.2224 153.015 73.2224C153.159 73.2224 153.301 73.1939 153.433 73.1386C153.566 73.0833 153.686 73.0023 153.787 72.9002L154.9 71.7866C155.791 72.3506 156.772 72.7586 157.8 72.993V74.5706C157.8 74.8598 157.915 75.1371 158.12 75.3416C158.324 75.5461 158.602 75.661 158.891 75.661H160.932C161.222 75.661 161.499 75.5461 161.703 75.3416C161.908 75.1371 162.023 74.8598 162.023 74.5706V72.993C163.051 72.7586 164.032 72.3506 164.923 71.7866L166.036 72.9002C166.137 73.0023 166.257 73.0833 166.39 73.1386C166.522 73.1939 166.664 73.2224 166.808 73.2224C166.951 73.2224 167.093 73.1939 167.226 73.1386C167.358 73.0833 167.478 73.0023 167.579 72.9002L169.023 71.456C169.227 71.2507 169.341 70.9735 169.341 70.6846C169.341 70.3957 169.227 70.1185 169.023 69.9132L167.91 68.7996L167.991 68.6604H164.963Z" fill="#F55D33"/>
<path d="M113.308 110.13H111.731C111.496 109.102 111.088 108.121 110.524 107.23L111.638 106.117C111.74 106.016 111.821 105.896 111.876 105.763C111.932 105.631 111.96 105.489 111.96 105.345C111.96 105.202 111.932 105.06 111.876 104.927C111.821 104.795 111.74 104.675 111.638 104.574L110.2 103.118C110.098 103.016 109.978 102.935 109.845 102.879C109.712 102.824 109.569 102.796 109.425 102.796C109.281 102.796 109.139 102.824 109.006 102.879C108.873 102.935 108.752 103.016 108.651 103.118L107.537 104.232C106.646 103.668 105.665 103.26 104.637 103.025V101.448C104.636 101.158 104.52 100.881 104.314 100.676C104.109 100.472 103.831 100.357 103.541 100.357H101.5C101.21 100.357 100.932 100.472 100.727 100.676C100.521 100.881 100.405 101.158 100.403 101.448V103.025C99.3754 103.26 98.3948 103.668 97.5034 104.232L96.3898 103.118C96.2889 103.016 96.1688 102.935 96.0364 102.88C95.904 102.825 95.7619 102.796 95.6184 102.796C95.4749 102.796 95.3328 102.825 95.2004 102.88C95.068 102.935 94.9479 103.016 94.847 103.118L93.3796 104.562C93.2775 104.663 93.1965 104.783 93.1412 104.916C93.0859 105.048 93.0574 105.19 93.0574 105.334C93.0574 105.477 93.0859 105.619 93.1412 105.752C93.1965 105.884 93.2775 106.004 93.3796 106.105L94.4932 107.219C93.9292 108.11 93.5212 109.091 93.2868 110.119H91.7092C91.5198 110.118 91.3336 110.168 91.1696 110.263C91.0056 110.357 90.8696 110.494 90.7754 110.658H95.6416C95.9967 109.105 96.8685 107.718 98.1145 106.725C99.3604 105.731 100.907 105.191 102.5 105.191C104.094 105.191 105.64 105.731 106.886 106.725C108.132 107.718 109.004 109.105 109.359 110.658H114.26C114.162 110.493 114.023 110.358 113.856 110.265C113.689 110.172 113.5 110.126 113.308 110.13Z" fill="#F55D33"/>
<path d="M61.1952 97.5966H63.2194C63.5101 97.5966 63.7889 97.4811 63.9945 97.2755C64.2001 97.07 64.3156 96.7911 64.3156 96.5004V94.9286C65.3436 94.6935 66.3242 94.2856 67.2156 93.7222L68.3292 94.8358C68.43 94.9379 68.5502 95.0189 68.6826 95.0742C68.815 95.1295 68.9571 95.158 69.1006 95.158C69.2441 95.158 69.3861 95.1295 69.5186 95.0742C69.651 95.0189 69.7711 94.9379 69.872 94.8358L71.3394 93.38C71.4414 93.2791 71.5225 93.159 71.5778 93.0266C71.6331 92.8942 71.6615 92.7521 71.6615 92.6086C71.6615 92.4651 71.6331 92.323 71.5778 92.1906C71.5225 92.0582 71.4414 91.9381 71.3394 91.8372L70.2258 90.7236C70.7898 89.8325 71.1977 88.8518 71.4322 87.8236H73.0098C73.299 87.8236 73.5763 87.7087 73.7808 87.5042C73.9853 87.2997 74.1002 87.0224 74.1002 86.7332V84.68C74.1002 84.3908 73.9853 84.1135 73.7808 83.909C73.5763 83.7045 73.299 83.5896 73.0098 83.5896H71.4322C71.1955 82.5621 70.7877 81.5818 70.2258 80.6896L71.3394 79.576C71.4414 79.4751 71.5225 79.355 71.5778 79.2226C71.6331 79.0902 71.6615 78.9481 71.6615 78.8046C71.6615 78.6611 71.6331 78.519 71.5778 78.3866C71.5225 78.2542 71.4414 78.1341 71.3394 78.0332L69.8952 76.589C69.6899 76.3857 69.4127 76.2716 69.1238 76.2716C68.8349 76.2716 68.5576 76.3857 68.3524 76.589L67.2388 77.72C66.3459 77.1608 65.3656 76.755 64.3388 76.5194V74.9418C64.3404 74.7949 64.3124 74.6492 64.2566 74.5133C64.2007 74.3774 64.1181 74.2541 64.0137 74.1508C63.9093 74.0475 63.7852 73.9662 63.6487 73.9117C63.5123 73.8573 63.3662 73.8309 63.2194 73.834H61.1778C60.8886 73.834 60.6112 73.9489 60.4067 74.1534C60.2023 74.3579 60.0874 74.6352 60.0874 74.9244V76.502C59.9076 76.5426 59.7336 76.5948 59.5596 76.647V79.1932C60.1742 78.9387 60.8231 78.7765 61.4852 78.7118C62.5521 78.5936 63.6318 78.7209 64.642 79.084C65.6521 79.447 66.5659 80.0363 67.3134 80.8066C68.061 81.5769 68.6225 82.5079 68.9551 83.5285C69.2877 84.5491 69.3825 85.6322 69.2324 86.6951C69.0823 87.7579 68.6911 88.7724 68.0888 89.6609C67.4865 90.5494 66.6891 91.2885 65.7574 91.8216C64.8258 92.3547 63.7845 92.6678 62.7134 92.7368C61.6422 92.8059 60.5694 92.6291 59.577 92.22V94.772C59.751 94.8242 59.925 94.8764 60.1048 94.917V96.4888C60.1032 96.6332 60.1303 96.7766 60.1843 96.9105C60.2384 97.0445 60.3183 97.1664 60.4197 97.2694C60.521 97.3723 60.6417 97.4542 60.7748 97.5104C60.9078 97.5665 61.0507 97.5958 61.1952 97.5966Z" fill="#F55D33"/>
<path d="M200.598 49.1434H109.098V54.7462H200.598V49.1434Z" fill="white" stroke="#2E353A" stroke-width="1.50103" stroke-miterlimit="10"/>
<path d="M55.8597 48.2502L53.2207 50.7906L55.9583 53.7254" stroke="#2E353A" stroke-width="1.50103" stroke-linecap="round" stroke-linejoin="round"/>
<path d="M53.2207 50.7906H59.0845" stroke="#2E353A" stroke-width="1.50103" stroke-linecap="round" stroke-linejoin="round"/>
<path d="M70.8173 48.2502L73.4622 50.7906L70.7188 53.7254" stroke="#2E353A" stroke-width="1.50103" stroke-linecap="round" stroke-linejoin="round"/>
<path d="M73.4566 50.7906H67.5928" stroke="#2E353A" stroke-width="1.50103" stroke-linecap="round" stroke-linejoin="round"/>
<path d="M86.0654 50.46C85.8965 49.8704 85.545 49.3496 85.0614 48.9723C84.5778 48.5951 83.9871 48.3808 83.3742 48.3604C82.9512 48.3601 82.5343 48.4615 82.1587 48.6561C81.7831 48.8506 81.4598 49.1326 81.2159 49.4782C80.9721 49.8239 80.8149 50.2231 80.7577 50.6422C80.7004 51.0613 80.7448 51.488 80.8869 51.8864C81.0291 52.2848 81.265 52.6432 81.5746 52.9313C81.8843 53.2195 82.2587 53.429 82.6663 53.5422C83.0738 53.6554 83.5026 53.6689 83.9166 53.5817C84.3305 53.4945 84.7173 53.309 85.0446 53.041" stroke="#2E353A" stroke-width="1.50103" stroke-linecap="round" stroke-linejoin="round"/>
<path d="M84.2852 50.7442H86.3384V48.3024" stroke="#2E353A" stroke-width="1.50103" stroke-linecap="round" stroke-linejoin="round"/>
<path d="M100.05 49.88L97.6139 47.908L95.2939 49.88V54.172H100.05V49.88Z" stroke="#2E353A" stroke-width="1.50103" stroke-linecap="round" stroke-linejoin="round"/>
<path d="M98.5415 51.04H96.6855V54.0154H98.5415V51.04Z" fill="#2E353A"/>
<path d="M95.2934 49.88L93.9014 51.156" stroke="#2E353A" stroke-width="1.50103" stroke-linecap="round" stroke-linejoin="round"/>
<path d="M100.05 49.88L101.361 51.0458" stroke="#2E353A" stroke-width="1.50103" stroke-linecap="round" stroke-linejoin="round"/>
<path d="M225.898 50.17H233.235" stroke="#2E353A" stroke-width="1.50103" stroke-linecap="round" stroke-linejoin="round"/>
<path d="M225.898 51.823H233.235" stroke="#2E353A" stroke-width="1.50103" stroke-linecap="round" stroke-linejoin="round"/>
<path d="M225.898 53.4818H233.235" stroke="#2E353A" stroke-width="1.50103" stroke-linecap="round" stroke-linejoin="round"/>
<path d="M225.898 55.1348H233.235" stroke="#2E353A" stroke-width="1.50103" stroke-linecap="round" stroke-linejoin="round"/>
<g style="mix-blend-mode:multiply">
<path d="M239.18 83.4098H119.7C119.12 83.4098 118.546 83.524 118.011 83.7458C117.475 83.9676 116.989 84.2927 116.579 84.7026C116.169 85.1124 115.844 85.599 115.622 86.1345C115.4 86.67 115.286 87.244 115.286 87.8236V121.005C115.286 121.585 115.4 122.159 115.622 122.694C115.844 123.23 116.169 123.717 116.579 124.126C116.989 124.536 117.475 124.861 118.011 125.083C118.546 125.305 119.12 125.419 119.7 125.419H239.18V83.4098Z" fill="#F55D33"/>
</g>
<path d="M231.815 166.947C231.612 159.407 232.197 146.479 225.562 141.166C219.762 136.526 215.203 142.831 213.568 147.935C209.601 160.329 211.468 174.006 211.474 186.795C211.474 186.986 211.474 187.183 211.474 187.375C211.161 196.782 210.03 206.973 211.056 216.375C211.056 216.375 210.047 206.967 202.652 210.998C195.257 215.029 206.353 236.211 206.353 236.211C206.353 236.211 197.612 229.831 193.593 235.202C189.573 240.572 198.633 246.628 198.633 246.628C198.633 246.628 190.229 244.279 190.229 246.628C190.229 248.977 192.92 251.001 200.669 252.004H242.347C242.347 252.004 249.069 248.31 247.724 244.279C246.378 240.248 239.32 242.597 239.32 242.597C239.32 242.597 250.079 229.489 249.406 223.77C248.733 218.051 234.9 224.756 234.9 224.756C234.9 224.756 245.653 197.531 243.641 185.432C242.052 175.902 234.651 182.422 230.626 186.087C231.578 179.754 231.976 173.35 231.815 166.947Z" fill="#F55D33"/>
<path opacity="0.5" d="M231.815 166.947C231.612 159.407 232.197 146.479 225.562 141.166C219.762 136.526 215.203 142.831 213.568 147.935C209.601 160.329 211.468 174.006 211.474 186.795C211.474 186.986 211.474 187.183 211.474 187.375C211.161 196.782 210.03 206.973 211.056 216.375C211.056 216.375 210.047 206.967 202.652 210.998C195.257 215.029 206.353 236.211 206.353 236.211C206.353 236.211 197.612 229.831 193.593 235.202C189.573 240.572 198.633 246.628 198.633 246.628C198.633 246.628 190.229 244.279 190.229 246.628C190.229 248.977 192.92 251.001 200.669 252.004H242.347C242.347 252.004 249.069 248.31 247.724 244.279C246.378 240.248 239.32 242.597 239.32 242.597C239.32 242.597 250.079 229.489 249.406 223.77C248.733 218.051 234.9 224.756 234.9 224.756C234.9 224.756 245.653 197.531 243.641 185.432C242.052 175.902 234.651 182.422 230.626 186.087C231.578 179.754 231.976 173.35 231.815 166.947Z" fill="white"/>
<path d="M218.445 251.645L221.473 159.216" stroke="white" stroke-width="1.72695" stroke-linecap="round" stroke-linejoin="round"/>
<path d="M220.128 212.993L235.927 198.203" stroke="white" stroke-width="1.72695" stroke-linecap="round" stroke-linejoin="round"/>
<path d="M227.522 206.271L230.881 196.858" stroke="white" stroke-width="1.72695" stroke-linecap="round" stroke-linejoin="round"/>
<path d="M207.02 224.419L219.118 237.527" stroke="white" stroke-width="1.72695" stroke-linecap="round" stroke-linejoin="round"/>
<path d="M239.285 231.814L219.118 242.237" stroke="white" stroke-width="1.72695" stroke-linecap="round" stroke-linejoin="round"/>
<path d="M228.531 237.864L235.926 237.527" stroke="white" stroke-width="1.72695" stroke-linecap="round" stroke-linejoin="round"/>
<path d="M154.094 259.915C210.219 259.915 255.716 257.586 255.716 254.713C255.716 251.839 210.219 249.51 154.094 249.51C97.9703 249.51 52.4727 251.839 52.4727 254.713C52.4727 257.586 97.9703 259.915 154.094 259.915Z" fill="#F55D33"/>
<path opacity="0.3" d="M154.094 259.915C210.219 259.915 255.716 257.586 255.716 254.713C255.716 251.839 210.219 249.51 154.094 249.51C97.9703 249.51 52.4727 251.839 52.4727 254.713C52.4727 257.586 97.9703 259.915 154.094 259.915Z" fill="white"/>
<path d="M157.25 251.14C156.77 251.146 156.298 251.267 155.875 251.494C155.15 251.877 152.018 252.735 150 253.448C146.85 254.568 144.391 253.965 144.646 254.788C144.901 255.612 149.814 257.265 152.656 257.305C155.498 257.346 156.867 256.638 158.224 256.667C159.581 256.696 158.584 257.352 160.846 257.607C163.108 257.862 163.844 257.868 164.633 256.633C165.422 255.397 165.868 255.078 165.619 253.512V253.46C165.493 252.787 165.133 252.179 164.602 251.746C164.071 251.313 163.404 251.082 162.719 251.094L157.25 251.14Z" fill="#2E353A"/>
<path d="M174.852 249.632C174.431 249.621 174.016 249.739 173.663 249.968C173.043 250.357 170.346 251.175 168.611 251.877C165.903 252.979 163.745 252.242 163.971 253.135C164.198 254.028 167.121 255.246 169.597 255.386C170.937 255.469 172.281 255.418 173.611 255.235C176.291 255.084 174.585 256.035 175.548 256.424C176.221 256.637 176.925 256.737 177.63 256.72C180.455 256.87 180.797 257.097 181.447 255.792C182.096 254.487 182.468 254.162 182.195 252.468V252.416C181.946 250.914 180.826 249.806 179.597 249.771L174.852 249.632Z" fill="#2E353A"/>
<path d="M149.57 161.298C149.57 161.298 150.058 178.35 150.058 184.075C150.058 189.799 151.519 215.673 153.468 225.052C155.417 234.43 156.513 247.828 156.513 249.29C156.513 250.751 156.026 251.117 157 252.091C157.975 253.066 161.64 254.893 162.974 254.284C164.308 253.675 165.045 251.384 165.045 251.384C165.045 251.384 165.045 238.716 165.41 230.434C165.776 222.152 165.167 211.294 165.167 211.294C165.167 211.294 169.917 233.224 171.257 237.609C172.596 241.993 173.693 249.945 173.936 251.529C174.18 253.112 175.247 253.164 176.61 253.164C178.246 253.164 180.27 252.955 181.001 251.737C181.731 250.519 180.148 237.73 180.148 232.597C180.148 227.464 176.129 195.762 176.494 187.937C176.859 180.113 179.174 166.622 178.443 162.603C178.008 160.239 177.764 157.843 177.712 155.44C177.712 155.44 152.615 152.54 149.57 161.298Z" fill="#2E353A" stroke="#2E353A" stroke-miterlimit="10"/>
<path d="M151.038 163.212C151.444 164.725 151.972 166.203 152.616 167.632C153.082 168.618 153.85 169.431 154.808 169.952" stroke="white" stroke-miterlimit="10"/>
<path d="M158.92 247.904C159.042 249.624 159.009 251.351 158.821 253.066" stroke="white" stroke-miterlimit="10"/>
<path d="M155.295 180.896C155.637 194.155 156.287 216.711 156.878 222.128C157.54 228.131 158.125 237.319 158.526 242.892" stroke="white" stroke-miterlimit="10"/>
<path d="M154.767 163.398C154.645 163.763 155.051 171.042 155.051 171.042C155.051 171.042 155.109 173.501 155.208 177.352" stroke="white" stroke-miterlimit="10"/>
<path d="M121.07 115.339C121.07 115.339 120.948 112.439 121.557 113.146C122.166 113.854 122.288 115.217 122.531 116.557C122.531 116.557 122.897 113.999 123.262 114.73C123.659 115.641 123.786 116.648 123.627 117.63C123.551 119.021 123.845 120.409 124.48 121.649C124.967 122.38 121.922 120.333 121.07 115.339Z" fill="white" stroke="#2E353A" stroke-miterlimit="10"/>
<path d="M212.744 119.155C212.744 119.155 214.484 116.8 213.567 117.067C212.651 117.334 211.827 118.378 210.853 119.352C210.853 119.352 211.978 117.032 211.265 117.427C210.419 117.966 209.747 118.737 209.328 119.648C208.615 120.845 207.596 121.83 206.375 122.502C205.563 122.838 209.246 122.821 212.744 119.155Z" fill="white" stroke="#2E353A" stroke-linecap="round" stroke-linejoin="round"/>
<path d="M214.6 80.2546V78.7872C214.6 78.6839 214.581 78.5814 214.542 78.4858C214.503 78.3901 214.445 78.3031 214.372 78.2298C214.3 78.1565 214.213 78.0983 214.118 78.0585C214.022 78.0188 213.92 77.9984 213.817 77.9984H212.657C212.488 77.257 212.196 76.5493 211.792 75.9046L212.593 75.1042C212.74 74.9564 212.823 74.7561 212.823 74.5474C212.823 74.3387 212.74 74.1384 212.593 73.9906L211.555 72.9524C211.407 72.8051 211.207 72.7223 210.998 72.7223C210.789 72.7223 210.589 72.8051 210.441 72.9524L209.641 73.7528C208.995 73.3473 208.285 73.055 207.541 72.8886V71.7286C207.542 71.6253 207.522 71.5228 207.483 71.4272C207.444 71.3315 207.387 71.2445 207.314 71.1712C207.241 71.0979 207.154 71.0397 207.059 71C206.964 70.9602 206.861 70.9398 206.758 70.9398H205.32C205.111 70.9413 204.912 71.0251 204.766 71.1729C204.619 71.3206 204.537 71.5204 204.537 71.7286V72.8886C203.794 73.0539 203.086 73.3462 202.443 73.7528L201.637 72.9524C201.564 72.8796 201.478 72.8219 201.383 72.7825C201.288 72.7431 201.186 72.7228 201.083 72.7228C200.98 72.7228 200.878 72.7431 200.783 72.7825C200.688 72.8219 200.602 72.8796 200.529 72.9524L199.52 73.9906C199.372 74.1384 199.29 74.3387 199.29 74.5474C199.29 74.7561 199.372 74.9564 199.52 75.1042L200.32 75.9046C199.915 76.549 199.621 77.2567 199.45 77.9984H198.319C198.11 77.9984 197.909 78.0815 197.761 78.2294C197.613 78.3774 197.53 78.578 197.53 78.7872V80.2546C197.53 80.3582 197.551 80.4608 197.59 80.5565C197.63 80.6522 197.688 80.7391 197.761 80.8124C197.835 80.8856 197.922 80.9437 198.017 80.9834C198.113 81.023 198.215 81.0434 198.319 81.0434H199.45C199.621 81.785 199.915 82.4928 200.32 83.1372L199.52 83.9376C199.372 84.0854 199.29 84.2857 199.29 84.4944C199.29 84.7031 199.372 84.9033 199.52 85.0512L200.558 86.0894C200.631 86.1622 200.717 86.2199 200.812 86.2593C200.907 86.2987 201.009 86.319 201.112 86.319C201.215 86.319 201.317 86.2987 201.412 86.2593C201.507 86.2199 201.593 86.1622 201.666 86.0894L202.472 85.289C203.116 85.695 203.824 85.9891 204.566 86.159V87.29C204.566 87.4982 204.648 87.698 204.795 87.8457C204.941 87.9935 205.14 88.0773 205.349 88.0788H206.822C206.925 88.0788 207.027 88.0584 207.123 88.0186C207.218 87.9789 207.305 87.9207 207.378 87.8474C207.45 87.7741 207.508 87.6871 207.547 87.5914C207.586 87.4958 207.606 87.3933 207.605 87.29V86.159C208.348 85.988 209.058 85.694 209.704 85.289L210.505 86.0894C210.653 86.2367 210.853 86.3195 211.062 86.3195C211.27 86.3195 211.471 86.2367 211.618 86.0894L212.657 85.0512C212.804 84.9033 212.887 84.7031 212.887 84.4944C212.887 84.2857 212.804 84.0854 212.657 83.9376L211.856 83.1372C212.259 82.4925 212.552 81.7847 212.72 81.0434H213.88C214.078 81.0273 214.262 80.9369 214.395 80.7905C214.529 80.6442 214.602 80.4527 214.6 80.2546ZM206.387 82.8646C205.695 82.9376 204.998 82.7946 204.392 82.4553C203.785 82.1159 203.298 81.5969 202.998 80.9697C202.699 80.3424 202.601 79.6376 202.718 78.9523C202.835 78.267 203.161 77.6349 203.653 77.1428C204.144 76.6507 204.775 76.3229 205.46 76.2044C206.145 76.0859 206.85 76.1826 207.478 76.4812C208.106 76.7797 208.626 77.2655 208.966 77.8716C209.307 78.4777 209.451 79.1745 209.38 79.866C209.302 80.6318 208.963 81.3475 208.42 81.8934C207.878 82.4393 207.164 82.7821 206.398 82.8646H206.387Z" fill="white" stroke="#2E353A" stroke-linecap="round" stroke-linejoin="round"/>
<path d="M144.02 120.907V119.434C144.02 119.33 143.999 119.228 143.96 119.133C143.92 119.037 143.862 118.951 143.788 118.878C143.715 118.805 143.628 118.748 143.532 118.709C143.437 118.67 143.334 118.65 143.231 118.651H142.071C141.91 117.918 141.626 117.217 141.23 116.58L142.03 115.774C142.103 115.701 142.161 115.615 142.2 115.52C142.24 115.425 142.26 115.323 142.26 115.22C142.26 115.117 142.24 115.015 142.2 114.92C142.161 114.825 142.103 114.739 142.03 114.666L140.992 113.622C140.844 113.475 140.644 113.392 140.435 113.392C140.227 113.392 140.026 113.475 139.879 113.622L139.078 114.428C138.434 114.023 137.726 113.729 136.984 113.558V112.398C136.983 112.19 136.899 111.991 136.751 111.844C136.604 111.698 136.404 111.615 136.196 111.615H134.728C134.52 111.615 134.32 111.698 134.172 111.844C134.025 111.991 133.941 112.19 133.939 112.398V113.558C133.198 113.729 132.49 114.023 131.846 114.428L131.045 113.622C130.897 113.475 130.697 113.392 130.488 113.392C130.28 113.392 130.079 113.475 129.932 113.622L128.893 114.666C128.821 114.739 128.763 114.825 128.723 114.92C128.684 115.015 128.664 115.117 128.664 115.22C128.664 115.323 128.684 115.425 128.723 115.52C128.763 115.615 128.821 115.701 128.893 115.774L129.694 116.58C129.288 117.224 128.994 117.932 128.824 118.674H127.664C127.56 118.673 127.458 118.693 127.362 118.732C127.267 118.771 127.18 118.828 127.106 118.901C127.033 118.974 126.975 119.06 126.935 119.156C126.895 119.251 126.875 119.353 126.875 119.457V120.93C126.875 121.033 126.895 121.136 126.935 121.231C126.975 121.326 127.033 121.413 127.106 121.486C127.18 121.559 127.267 121.616 127.362 121.655C127.458 121.694 127.56 121.714 127.664 121.713H128.824C128.995 122.456 129.289 123.166 129.694 123.813L128.893 124.613C128.746 124.761 128.663 124.961 128.663 125.17C128.663 125.379 128.746 125.579 128.893 125.727L129.932 126.765C130.079 126.912 130.28 126.995 130.488 126.995C130.697 126.995 130.897 126.912 131.045 126.765L131.846 125.959C132.49 126.364 133.198 126.658 133.939 126.829V127.989C133.939 128.092 133.96 128.194 134 128.29C134.039 128.385 134.097 128.472 134.171 128.544C134.244 128.617 134.331 128.675 134.427 128.714C134.522 128.753 134.625 128.772 134.728 128.772H136.196C136.299 128.772 136.401 128.753 136.497 128.714C136.593 128.675 136.68 128.617 136.753 128.544C136.826 128.472 136.885 128.385 136.924 128.29C136.964 128.194 136.984 128.092 136.984 127.989V126.829C137.726 126.658 138.434 126.364 139.078 125.959L139.879 126.765C140.026 126.912 140.227 126.995 140.435 126.995C140.644 126.995 140.844 126.912 140.992 126.765L142.03 125.727C142.178 125.579 142.26 125.379 142.26 125.17C142.26 124.961 142.178 124.761 142.03 124.613L141.23 123.813C141.636 123.167 141.928 122.457 142.094 121.713H143.254C143.358 121.711 143.459 121.688 143.554 121.646C143.648 121.604 143.734 121.544 143.805 121.469C143.876 121.394 143.932 121.306 143.969 121.21C144.005 121.113 144.023 121.01 144.02 120.907ZM135.819 123.627C135.103 123.702 134.383 123.554 133.755 123.203C133.127 122.852 132.624 122.315 132.314 121.666C132.004 121.017 131.903 120.288 132.024 119.579C132.145 118.871 132.483 118.217 132.991 117.708C133.499 117.199 134.152 116.86 134.861 116.737C135.57 116.614 136.299 116.714 136.948 117.023C137.598 117.332 138.136 117.834 138.488 118.461C138.84 119.088 138.99 119.809 138.916 120.524C138.834 121.318 138.481 122.06 137.917 122.625C137.353 123.19 136.612 123.543 135.819 123.627Z" fill="white" stroke="#2E353A" stroke-linecap="round" stroke-linejoin="round"/>
<path d="M245.456 78.851H122.432C119.995 78.851 118.019 80.8271 118.019 83.2648V116.447C118.019 118.884 119.995 120.86 122.432 120.86H245.456C247.894 120.86 249.87 118.884 249.87 116.447V83.2648C249.87 80.8271 247.894 78.851 245.456 78.851Z" fill="white" stroke="#2E353A" stroke-linecap="round" stroke-linejoin="round"/>
<path d="M245.757 89.8942H126.741" stroke="#2E353A" stroke-linecap="round" stroke-linejoin="round"/>
<path d="M245.757 99.0988H126.741" stroke="#2E353A" stroke-linecap="round" stroke-linejoin="round"/>
<path d="M245.757 108.303H126.741" stroke="#2E353A" stroke-linecap="round" stroke-linejoin="round"/>
<path d="M130.077 128C130.077 128 128.644 126.776 128.47 126.26C128.312 125.444 128.077 124.644 127.769 123.871C127.27 122.786 125.449 121.817 124.869 120.53C124.289 119.242 123.517 116.986 123.129 116.551C122.74 116.116 122.166 116.313 121.969 117.531C121.771 118.749 124.051 121.736 124.196 122.171C124.341 122.606 121.812 121.852 120.188 120.808C118.564 119.764 117.566 117.589 116.586 116.209C115.606 114.828 114.806 115.797 114.846 116.592C114.887 117.386 117.804 121.87 118.367 123.505C118.929 125.141 120.803 126.898 121.847 127.791C122.891 128.685 125.182 129.044 125.182 129.044L126.719 130.575L130.077 128Z" fill="white" stroke="#2E353A" stroke-miterlimit="10"/>
<path d="M125.698 134.34L123.627 129.833C124.034 129.245 124.558 128.747 125.165 128.37C125.773 127.993 126.452 127.745 127.159 127.641C129.717 127.153 130.059 127.641 130.059 127.641L131.399 132.281C131.399 132.281 127.02 132.634 125.698 134.34Z" fill="#F55D33" stroke="#2E353A" stroke-linecap="round" stroke-linejoin="round"/>
<path d="M145.795 118.9C145.795 118.9 139.583 136.683 138.731 138.997C138.51 139.577 138.087 140.563 137.571 141.688C136.486 139.803 134.091 135.645 133.377 133.881C132.403 131.561 131.057 130.981 128.871 131.202C126.684 131.422 124.729 133.76 124.729 135.465C124.729 138.695 127.589 143.005 128.853 145.905C130.21 148.979 131.121 150.127 133.412 152.697C136.312 155.95 139.601 154.825 141.822 151.658C143.527 149.222 147.871 140.354 147.871 140.354C147.871 140.354 146.769 121.672 145.795 118.9Z" fill="#F55D33" stroke="#2E353A" stroke-linecap="round" stroke-linejoin="round"/>
<path d="M137.565 141.659C137.565 141.659 135.164 145.11 134.938 146.937" stroke="#2E353A" stroke-linecap="round" stroke-linejoin="round"/>
<path d="M197.733 125.727C197.733 125.727 199.433 124.915 199.734 124.468C200.096 123.717 200.53 123.002 201.028 122.334C201.788 121.417 203.823 120.959 204.711 119.857C205.598 118.755 206.926 116.783 207.425 116.47C207.924 116.157 208.417 116.47 208.307 117.717C208.197 118.964 205.215 121.243 204.972 121.603C204.728 121.962 207.785 120.901 209.67 121.29C211.555 121.678 213.799 120.831 215.47 120.536C217.14 120.24 217.03 121.487 216.462 122.038C215.893 122.589 210.662 123.737 209.107 124.509C207.553 125.28 206.207 125.883 204.925 126.469C204.005 126.922 203.112 127.43 202.252 127.989L200.372 129.073L197.733 125.727Z" fill="white" stroke="#2E353A" stroke-linecap="round" stroke-linejoin="round"/>
<path d="M201.84 132.518L203.911 128.012C203.503 127.424 202.98 126.926 202.372 126.549C201.765 126.172 201.086 125.923 200.378 125.819C197.821 125.332 197.478 125.819 197.478 125.819L196.139 130.459C196.139 130.459 200.523 130.813 201.84 132.518Z" fill="#F55D33" stroke="#2E353A" stroke-miterlimit="10"/>
<path d="M198.696 129.34C196.504 129.096 195.164 129.705 194.19 132.02C193.447 133.76 191.087 137.941 189.996 139.826C189.474 138.701 189.051 137.738 188.836 137.135C187.984 134.815 181.772 117.038 181.772 117.038C180.797 119.84 179.701 138.498 179.701 138.498C179.701 138.498 184.341 147.361 186.081 149.802C187.085 151.235 187.879 152.563 189.718 152.836C195.123 153.642 196.742 148.555 198.418 144.797C199.468 142.425 200.512 140.047 201.486 137.64C201.962 136.48 202.866 134.92 202.866 133.626C202.837 131.909 200.889 129.595 198.696 129.34Z" fill="#F55D33" stroke="#2E353A" stroke-linecap="round" stroke-linejoin="round"/>
<path d="M189.996 139.838C189.996 139.838 192.432 143.283 192.896 145.11" stroke="#2E353A" stroke-linecap="round" stroke-linejoin="round"/>
<path d="M155.44 86.2228C155.44 86.2228 153.734 92.5564 154.1 93.1828C154.465 93.8092 155.318 93.5482 154.831 94.7662C154.344 95.9842 153.247 98.3042 153.491 99.2786C153.735 100.253 155.074 100.984 155.074 100.984C155.074 100.984 155.683 105.369 156.292 106.204C156.901 107.039 160.19 106.569 160.19 106.569L160.433 109.858L170.183 109.278L169.818 103.431L169.331 85.3992L155.44 86.2228Z" fill="white"/>
<mask id="mask0_165_633" style="mask-type:luminance" maskUnits="userSpaceOnUse" x="153" y="85" width="18" height="25">
<path d="M155.44 86.2228C155.44 86.2228 153.734 92.5564 154.1 93.1828C154.465 93.8092 155.318 93.5482 154.831 94.7662C154.344 95.9842 153.247 98.3042 153.491 99.2786C153.735 100.253 155.074 100.984 155.074 100.984C155.074 100.984 155.683 105.369 156.292 106.204C156.901 107.039 160.19 106.569 160.19 106.569L160.433 109.858L170.183 109.278L169.818 103.431L169.331 85.3992L155.44 86.2228Z" fill="white"/>
</mask>
<g mask="url(#mask0_165_633)">
<g style="mix-blend-mode:multiply" opacity="0.5">
<path d="M160.166 106.569L160.41 109.858L170.16 109.278L169.794 103.431L169.585 95.845C168.315 95.845 167.155 95.8972 166.796 95.8972C165.908 95.8972 163.971 95.7464 163.524 95.8972C163.078 96.048 162.486 96.193 162.486 96.193L160.259 98.571C160.259 98.571 160.404 101.691 159.366 103.327C158.496 104.696 156.211 105.235 156.083 105.856C156.136 105.986 156.198 106.112 156.269 106.233C156.385 106.32 156.512 106.413 156.651 106.505C157.707 106.929 160.166 106.569 160.166 106.569Z" fill="#F55D33"/>
</g>
</g>
<path d="M155.44 86.2228C155.44 86.2228 153.734 92.5564 154.1 93.1828C154.465 93.8092 155.318 93.5482 154.831 94.7662C154.344 95.9842 153.247 98.3042 153.491 99.2786C153.735 100.253 155.074 100.984 155.074 100.984C155.074 100.984 155.683 105.369 156.292 106.204C156.901 107.039 160.19 106.569 160.19 106.569L160.433 109.858L170.183 109.278L169.818 103.431L169.331 85.3992L155.44 86.2228Z" stroke="#2E353A" stroke-miterlimit="10"/>
<path d="M156.31 94.9982C156.31 95.4912 156.13 95.8856 155.91 95.8856C155.69 95.8856 155.504 95.4912 155.504 94.9982C155.504 94.5052 155.684 94.1108 155.91 94.1108C156.136 94.1108 156.31 94.5052 156.31 94.9982Z" fill="#2E353A"/>
<path d="M167.115 81.3508C166.535 81.4436 161.895 81.3508 158.218 81.9598C154.541 82.5688 153.468 82.8124 153.578 84.3958C153.688 85.9792 153.334 86.5882 154.674 87.1972C155.244 87.4965 155.863 87.6928 156.501 87.7772C156.501 87.7772 156.136 89.4824 156.014 90.6772C155.892 91.872 158.084 93.235 158.084 93.235C158.015 94.0507 158.056 94.8721 158.206 95.6768C158.45 96.2568 159.059 96.4076 159.424 95.9204C159.79 95.4332 160.033 93.1132 160.399 94.0876C160.764 95.062 162.226 102.376 163.206 103.228C164.186 104.081 168.565 103.594 169.783 103.35C171.001 103.107 173.315 97.991 174.423 94.9402C175.531 91.8894 175.003 86.536 173.449 84.1C171.894 81.664 168.698 81.1072 167.115 81.3508Z" fill="white" stroke="#2E353A" stroke-miterlimit="10"/>
<path d="M173.82 84.8366C173.385 85.9966 172.939 87.4466 171.703 87.5394C169.772 87.6902 169.772 85.1614 168.432 84.2682C167.092 83.375 169.325 88.7284 168.287 87.2436C167.249 85.7588 164.569 84.2682 162.191 84.1232C159.813 83.9782 163.525 88.4326 162.638 88.4326C161.751 88.4326 160.26 85.608 160.26 84.8656C160.26 84.1232 158.027 84.1 155.498 84.1C152.969 84.1 154.013 85.5848 154.013 86.478C154.014 86.6052 154.05 86.7298 154.118 86.8376C154.297 86.9728 154.492 87.0857 154.698 87.174C155.268 87.4733 155.886 87.6696 156.525 87.754C156.525 87.754 156.159 89.4592 156.038 90.654C155.916 91.8488 158.108 93.2118 158.108 93.2118C158.038 94.0275 158.079 94.8489 158.23 95.6536C158.474 96.2336 159.083 96.3844 159.448 95.8972C159.813 95.41 160.057 93.09 160.422 94.0644C160.788 95.0388 162.249 102.353 163.23 103.205C164.21 104.058 168.589 103.571 169.807 103.327C171.025 103.083 173.339 97.9678 174.447 94.917C175.427 92.22 175.096 87.4814 173.82 84.8366Z" fill="#2E353A"/>
<path d="M158.097 109.492L155.417 114.364C155.417 114.364 162.116 112.416 165.776 112.416C168.349 112.462 170.914 112.706 173.449 113.146L171.744 108.396C171.744 108.396 162.481 107.422 158.097 109.492Z" fill="#F55D33" stroke="#2E353A" stroke-miterlimit="10"/>
<path d="M156.391 113.755C156.391 113.755 152.007 116.075 149.431 117.288C148.242 117.879 147.022 118.408 145.777 118.871C145.777 118.871 148.822 157.644 148.822 159.715C148.822 161.785 148.701 161.907 149.431 162.516C150.162 163.125 153.944 163.403 160.643 163.282C167.342 163.16 175.723 161.785 176.355 161.785C176.847 161.75 177.324 161.599 177.747 161.345C178.171 161.091 178.528 160.741 178.791 160.324C179.522 159.227 181.836 117.897 181.958 117.404C182.08 116.911 173.919 113.384 173.066 113.141C172.214 112.897 167.359 109.62 156.391 113.755Z" fill="#F55D33" stroke="#2E353A" stroke-miterlimit="10"/>
<path d="M171.158 144.797C170.392 145.496 169.572 146.134 168.705 146.705" stroke="#2E353A" stroke-linecap="round" stroke-linejoin="round"/>
<path d="M180.114 128.911C180.114 128.911 178.42 136.387 173.479 142.355" stroke="#2E353A" stroke-linecap="round" stroke-linejoin="round"/>
<path d="M159.367 94.0818C159.528 95.2162 159.627 96.3586 159.663 97.5038C159.663 98.8378 158.77 99.5802 159.367 100.178C159.964 100.775 160.405 100.473 160.852 99.4352C161.331 98.2051 161.53 96.8833 161.432 95.5666C161.298 94.54 161.148 92.2954 159.367 94.0818Z" fill="white" stroke="#2E353A" stroke-miterlimit="10"/>
<path d="M165.927 214.855L169.192 181.47L174.273 175.299" stroke="white" stroke-miterlimit="10"/>
</svg>
