<svg width="290" height="290" viewBox="0 0 290 290" fill="none" xmlns="http://www.w3.org/2000/svg">
<path opacity="0.7" d="M39.3992 96.9122C39.3992 96.9122 23.2288 138.672 45.9532 180.722C68.6776 222.772 115.484 244.986 152.946 263.981C190.408 282.976 229.309 273.725 247.793 242.614C266.278 211.503 240.926 189.295 240.891 144.93C240.856 100.566 247.532 88.8212 223.491 51.3416C199.45 13.862 140.516 5.56221 95.9491 33.3616C51.3819 61.161 39.3992 96.9122 39.3992 96.9122Z" fill="white"/>
<path d="M40.02 250.363H162.51C163.003 249.574 163.502 248.785 164.012 248.014C177.19 227.957 198.29 213.655 221.334 206.944C231.658 203.94 242.84 202.153 251.134 195.309C259.672 188.274 263.593 177.045 265.286 166.112C267.345 152.876 266.232 138.034 257.247 128.099C246.697 116.435 229.019 115.124 215.273 107.48C191.615 94.3138 182.445 64.3336 160.921 47.908C147.32 37.5318 128.969 33.5124 112.52 35.786C89.2098 39.0166 67.28 54.636 60.697 77.546C58.8046 84.2187 58.1287 91.1775 58.7018 98.0896C59.7516 111.749 62.6922 125.582 59.9198 138.997C56.8632 153.781 47.2468 166.257 41.499 180.229C34.3418 197.629 33.379 217.117 36.4124 235.666C37.2243 240.652 38.4306 245.567 40.02 250.363Z" fill="#FFB600"/>
<path opacity="0.7" d="M40.02 250.363H162.51C163.003 249.574 163.502 248.785 164.012 248.014C177.19 227.957 198.29 213.655 221.334 206.944C231.658 203.94 242.84 202.153 251.134 195.309C259.672 188.274 263.593 177.045 265.286 166.112C267.345 152.876 266.232 138.034 257.247 128.099C246.697 116.435 229.019 115.124 215.273 107.48C191.615 94.3138 182.445 64.3336 160.921 47.908C147.32 37.5318 128.969 33.5124 112.52 35.786C89.2098 39.0166 67.28 54.636 60.697 77.546C58.8046 84.2187 58.1287 91.1775 58.7018 98.0896C59.7516 111.749 62.6922 125.582 59.9198 138.997C56.8632 153.781 47.2468 166.257 41.499 180.229C34.3418 197.629 33.379 217.117 36.4124 235.666C37.2243 240.652 38.4306 245.567 40.02 250.363Z" fill="white"/>
<path d="M24.3545 250.363H266.98" stroke="#263238" stroke-linecap="round" stroke-linejoin="round"/>
<path d="M31.0188 63.742H176.86C177.512 63.742 178.137 64.0011 178.599 64.4623C179.06 64.9235 179.319 65.549 179.319 66.2012V73.08H28.5596V66.2012C28.5596 65.549 28.8187 64.9235 29.2799 64.4623C29.741 64.0011 30.3665 63.742 31.0188 63.742Z" fill="#FFB600" stroke="#263238" stroke-linecap="round" stroke-linejoin="round"/>
<path d="M187.532 74.8026H35.1602V182.027H187.532V74.8026Z" fill="white" stroke="#263238" stroke-linecap="round" stroke-linejoin="round"/>
<path d="M189.864 68.4052C189.864 68.8641 189.728 69.3126 189.473 69.6941C189.218 70.0756 188.855 70.373 188.431 70.5486C188.008 70.7242 187.541 70.7701 187.091 70.6806C186.641 70.5911 186.228 70.3701 185.903 70.0457C185.579 69.7212 185.358 69.3078 185.268 68.8578C185.179 68.4078 185.225 67.9413 185.4 67.5174C185.576 67.0935 185.873 66.7311 186.255 66.4762C186.636 66.2213 187.085 66.0852 187.544 66.0852C188.159 66.0852 188.749 66.3296 189.184 66.7647C189.619 67.1998 189.864 67.7899 189.864 68.4052Z" fill="white" stroke="#263238" stroke-linecap="round" stroke-linejoin="round"/>
<path d="M181.651 68.4052C181.651 68.8641 181.515 69.3126 181.26 69.6941C181.005 70.0756 180.642 70.373 180.219 70.5486C179.795 70.7242 179.328 70.7701 178.878 70.6806C178.428 70.5911 178.015 70.3701 177.69 70.0457C177.366 69.7212 177.145 69.3078 177.055 68.8578C176.966 68.4078 177.012 67.9413 177.187 67.5174C177.363 67.0935 177.66 66.7311 178.042 66.4762C178.423 66.2213 178.872 66.0852 179.331 66.0852C179.946 66.0852 180.536 66.3296 180.971 66.7647C181.406 67.1998 181.651 67.7899 181.651 68.4052Z" fill="white" stroke="#263238" stroke-linecap="round" stroke-linejoin="round"/>
<path d="M173.42 68.4052C173.42 68.8641 173.284 69.3126 173.029 69.6941C172.774 70.0756 172.412 70.373 171.988 70.5486C171.564 70.7242 171.098 70.7701 170.648 70.6806C170.198 70.5911 169.784 70.3701 169.46 70.0457C169.135 69.7212 168.914 69.3078 168.825 68.8578C168.735 68.4078 168.781 67.9413 168.957 67.5174C169.132 67.0935 169.43 66.7311 169.811 66.4762C170.193 66.2213 170.641 66.0852 171.1 66.0852C171.716 66.0852 172.306 66.3296 172.741 66.7647C173.176 67.1998 173.42 67.7899 173.42 68.4052Z" fill="white" stroke="#263238" stroke-linecap="round" stroke-linejoin="round"/>
<path d="M182.915 79.402H176.883" stroke="#263238" stroke-width="2" stroke-linecap="round" stroke-linejoin="round"/>
<path d="M182.915 81.8496H176.883" stroke="#263238" stroke-width="2" stroke-linecap="round" stroke-linejoin="round"/>
<path d="M182.915 84.2972H176.883" stroke="#263238" stroke-width="2" stroke-linecap="round" stroke-linejoin="round"/>
<path d="M45.71 142.668H91.3734" stroke="#263238" stroke-width="2" stroke-linecap="round" stroke-linejoin="round"/>
<path d="M45.71 146.27H91.3734" stroke="#263238" stroke-width="2" stroke-linecap="round" stroke-linejoin="round"/>
<path d="M45.71 149.936H81.7164" stroke="#263238" stroke-width="2" stroke-linecap="round" stroke-linejoin="round"/>
<path d="M142.541 76.009V76.299" stroke="#263238" stroke-linecap="round" stroke-linejoin="round"/>
<path d="M142.541 78.039V179.092" stroke="#263238" stroke-linecap="round" stroke-linejoin="round" stroke-dasharray="1 3"/>
<path d="M142.541 179.962V180.252" stroke="#263238" stroke-linecap="round" stroke-linejoin="round"/>
<path d="M36.9932 157.98H37.2832" stroke="#263238" stroke-linecap="round" stroke-linejoin="round"/>
<path d="M39.0166 157.98H184.04" stroke="#263238" stroke-linecap="round" stroke-linejoin="round" stroke-dasharray="1 2.99"/>
<path d="M184.91 157.98H185.2" stroke="#263238" stroke-linecap="round" stroke-linejoin="round"/>
<path d="M143.545 156.977H141.544V158.978H143.545V156.977Z" fill="white" stroke="#263238" stroke-linecap="round" stroke-linejoin="round"/>
<path d="M134.555 138.759H107.84" stroke="#263238" stroke-linecap="round" stroke-linejoin="round"/>
<path d="M135.071 151.113C135.071 151.113 135.071 138.695 121.198 138.695C107.324 138.695 107.301 151.113 107.301 151.113" stroke="#263238" stroke-linecap="round" stroke-linejoin="round"/>
<path d="M135.071 152.285C135.718 152.285 136.243 151.76 136.243 151.113C136.243 150.466 135.718 149.942 135.071 149.942C134.424 149.942 133.899 150.466 133.899 151.113C133.899 151.76 134.424 152.285 135.071 152.285Z" fill="#FFB600" stroke="#263238" stroke-linecap="round" stroke-linejoin="round"/>
<path d="M106.141 151.113C106.141 150.884 106.209 150.66 106.336 150.469C106.464 150.278 106.645 150.129 106.857 150.042C107.069 149.954 107.302 149.931 107.527 149.976C107.752 150.02 107.959 150.131 108.121 150.293C108.283 150.455 108.394 150.662 108.438 150.887C108.483 151.112 108.46 151.345 108.372 151.557C108.285 151.769 108.136 151.95 107.945 152.078C107.754 152.205 107.53 152.273 107.301 152.273C106.993 152.273 106.698 152.151 106.48 151.933C106.263 151.716 106.141 151.421 106.141 151.113Z" fill="#FFB600" stroke="#263238" stroke-linecap="round" stroke-linejoin="round"/>
<path d="M134.044 139.722H136.098V137.669H134.044V139.722Z" fill="#FFB600" stroke="#263238" stroke-linecap="round" stroke-linejoin="round"/>
<path d="M120.17 139.722H122.224V137.669H120.17V139.722Z" fill="#FFB600" stroke="#263238" stroke-linecap="round" stroke-linejoin="round"/>
<path d="M106.297 139.722H108.351V137.669H106.297V139.722Z" fill="#FFB600" stroke="#263238" stroke-linecap="round" stroke-linejoin="round"/>
<path d="M62.3094 101.425V97.3182L59.2412 97.0572C59.0591 96.4155 58.8042 95.7966 58.4814 95.2128L60.465 92.858L57.565 89.958L55.2044 91.9416C54.6226 91.6146 54.0033 91.3595 53.36 91.1818L53.0932 88.1078H48.9984L48.7316 91.1818C48.0899 91.3588 47.4724 91.6139 46.893 91.9416L44.5324 89.958L41.6324 92.858L43.616 95.2128C43.2909 95.7955 43.0358 96.4146 42.8562 97.0572L39.7822 97.3182V101.425L42.8562 101.686C43.0369 102.328 43.2918 102.947 43.616 103.53L41.6324 105.885L44.5324 108.785L46.893 106.801C47.4688 107.128 48.0823 107.383 48.72 107.561L48.9868 110.635H53.0874L53.3542 107.561C53.9955 107.383 54.6129 107.128 55.1928 106.801L57.5534 108.785L60.4534 105.885L58.4698 103.53C58.7916 102.946 59.0464 102.327 59.2296 101.686L62.3094 101.425ZM51.04 104.139C50.0971 104.139 49.1753 103.859 48.3913 103.336C47.6073 102.812 46.9962 102.067 46.6353 101.196C46.2745 100.325 46.1801 99.3661 46.364 98.4413C46.548 97.5165 47.0021 96.667 47.6688 96.0002C48.3356 95.3334 49.1851 94.8794 50.1099 94.6954C51.0347 94.5115 51.9933 94.6059 52.8645 94.9667C53.7357 95.3276 54.4803 95.9386 55.0041 96.7227C55.528 97.5067 55.8076 98.4285 55.8076 99.3714C55.8076 100.636 55.3053 101.849 54.4112 102.743C53.5171 103.637 52.3045 104.139 51.04 104.139Z" fill="#FFB600" stroke="#263238" stroke-linecap="round" stroke-linejoin="round"/>
<path d="M76.2533 110.623V107.816L74.1479 107.631C74.0267 107.192 73.8534 106.769 73.6317 106.372L74.9889 104.76L72.9995 102.776L71.3871 104.133C70.9887 103.912 70.5665 103.737 70.1285 103.611L69.9487 101.5H67.1415L66.9559 103.605C66.5179 103.731 66.0956 103.906 65.6973 104.127L64.0849 102.77L62.0955 104.754L63.4585 106.366C63.2324 106.762 63.057 107.185 62.9365 107.625L60.8311 107.81V110.618L62.9365 110.797C63.056 111.238 63.2314 111.66 63.4585 112.056L62.0955 113.68L64.0849 115.664L65.6973 114.306C66.0956 114.528 66.5179 114.703 66.9559 114.828L67.1415 116.928H69.9487L70.1285 114.828C70.5665 114.703 70.9887 114.528 71.3871 114.306L72.9995 115.664L74.9889 113.68L73.6607 112.062C73.8835 111.665 74.0568 111.242 74.1769 110.803L76.2533 110.623ZM68.5451 112.479C67.8987 112.481 67.2666 112.29 66.7287 111.931C66.1908 111.573 65.7714 111.063 65.5235 110.466C65.2757 109.869 65.2105 109.212 65.3363 108.578C65.4621 107.944 65.7733 107.362 66.2303 106.905C66.6873 106.448 67.2697 106.137 67.9036 106.011C68.5376 105.885 69.1946 105.95 69.7916 106.198C70.3885 106.446 70.8984 106.866 71.2568 107.403C71.6151 107.941 71.8058 108.573 71.8047 109.22C71.8031 110.084 71.4592 110.912 70.8482 111.523C70.2373 112.134 69.4091 112.478 68.5451 112.479Z" fill="#FFB600" stroke="#263238" stroke-linecap="round" stroke-linejoin="round"/>
<path d="M148.271 164.801H170.735" stroke="#263238" stroke-width="2" stroke-linecap="round" stroke-linejoin="round"/>
<path d="M148.271 168.403H170.735" stroke="#263238" stroke-width="2" stroke-linecap="round" stroke-linejoin="round"/>
<path d="M148.271 172.069H161.078" stroke="#263238" stroke-width="2" stroke-linecap="round" stroke-linejoin="round"/>
<path d="M118.674 173.565H106.848C106.079 173.565 105.341 173.259 104.798 172.716C104.254 172.172 103.948 171.434 103.948 170.665C103.948 169.896 104.254 169.158 104.798 168.614C105.341 168.071 106.079 167.765 106.848 167.765H118.674C119.444 167.765 120.181 168.071 120.725 168.614C121.269 169.158 121.574 169.896 121.574 170.665C121.574 171.434 121.269 172.172 120.725 172.716C120.181 173.259 119.444 173.565 118.674 173.565Z" fill="#FFB600" stroke="#263238" stroke-linecap="round" stroke-linejoin="round"/>
<path d="M140.714 173.565H128.888C128.119 173.565 127.382 173.259 126.838 172.716C126.294 172.172 125.988 171.434 125.988 170.665C125.988 169.896 126.294 169.158 126.838 168.614C127.382 168.071 128.119 167.765 128.888 167.765H140.714C141.484 167.765 142.221 168.071 142.765 168.614C143.309 169.158 143.614 169.896 143.614 170.665C143.614 171.434 143.309 172.172 142.765 172.716C142.221 173.259 141.484 173.565 140.714 173.565Z" fill="#FFB600" stroke="#263238" stroke-linecap="round" stroke-linejoin="round"/>
<path d="M174.992 111.343H149.913V136.422H174.992V111.343Z" fill="white" stroke="#263238" stroke-linecap="round" stroke-linejoin="round"/>
<path d="M149.913 111.343L174.992 136.422" stroke="#263238" stroke-linecap="round" stroke-linejoin="round"/>
<path d="M174.992 111.343L149.913 136.422" stroke="#263238" stroke-linecap="round" stroke-linejoin="round"/>
<path d="M159.75 82.8704V88.7226L157.169 91.3036H151.316V82.8704H159.75Z" fill="white" stroke="#263238" stroke-linecap="round" stroke-linejoin="round"/>
<path d="M159.75 88.7226L157.169 91.3036V88.7226H159.75Z" fill="white" stroke="#263238" stroke-linecap="round" stroke-linejoin="round"/>
<path d="M70.0641 128.128V133.98L67.4831 136.567H61.6309V128.128H70.0641Z" fill="white" stroke="#263238" stroke-linecap="round" stroke-linejoin="round"/>
<path d="M70.0644 133.98L67.4834 136.567V133.98H70.0644Z" fill="white" stroke="#263238" stroke-linecap="round" stroke-linejoin="round"/>
<path d="M38.1988 164.186V170.039L35.6178 172.62H29.7598V164.186H38.1988Z" fill="white" stroke="#263238" stroke-linecap="round" stroke-linejoin="round"/>
<path d="M38.1992 170.039L35.6182 172.62V170.039H38.1992Z" fill="white" stroke="#263238" stroke-linecap="round" stroke-linejoin="round"/>
<path d="M202.228 96.4424H171.105V115.948H202.228V96.4424Z" fill="#263238" stroke="#263238" stroke-linecap="round" stroke-linejoin="round"/>
<path d="M202.228 96.4424H171.105V99.4062H202.228V96.4424Z" fill="#FFB600" stroke="#263238" stroke-linecap="round" stroke-linejoin="round"/>
<path d="M174.278 101.906H182.236" stroke="white" stroke-linecap="round" stroke-linejoin="round"/>
<path d="M178.257 104.127H192.026" stroke="white" stroke-linecap="round" stroke-linejoin="round"/>
<path d="M176.499 106.198H180.553" stroke="white" stroke-linecap="round" stroke-linejoin="round"/>
<path d="M178.257 108.64H187.531" stroke="white" stroke-linecap="round" stroke-linejoin="round"/>
<path d="M174.278 110.855H182.236" stroke="white" stroke-linecap="round" stroke-linejoin="round"/>
<path d="M85.1785 174.922H54.0557V194.428H85.1785V174.922Z" fill="#263238" stroke="#263238" stroke-linecap="round" stroke-linejoin="round"/>
<path d="M85.1785 174.922H54.0557V177.886H85.1785V174.922Z" fill="#FFB600" stroke="#263238" stroke-linecap="round" stroke-linejoin="round"/>
<path d="M57.2344 180.392H65.1862" stroke="white" stroke-linecap="round" stroke-linejoin="round"/>
<path d="M61.207 182.607H74.9762" stroke="white" stroke-linecap="round" stroke-linejoin="round"/>
<path d="M59.4492 184.678H63.5034" stroke="white" stroke-linecap="round" stroke-linejoin="round"/>
<path d="M61.207 187.12H70.4812" stroke="white" stroke-linecap="round" stroke-linejoin="round"/>
<path d="M57.2344 189.341H65.1862" stroke="white" stroke-linecap="round" stroke-linejoin="round"/>
<path d="M143.764 128.516C140.696 128.777 136.804 125.112 136.804 125.112C136.73 125.189 136.638 125.247 136.537 125.283C136.436 125.319 136.328 125.33 136.221 125.317C136.115 125.303 136.013 125.265 135.924 125.205C135.835 125.146 135.761 125.066 135.708 124.973C135.209 124.253 133.046 122.589 132.924 121.15C132.802 119.712 135.354 117.38 135.354 117.38C133.388 117.914 133.179 116.76 133.179 116.76C133.179 116.76 136.491 114.028 137.651 113.953C138.104 113.924 140.076 115.06 141.984 116.592C143.979 118.198 147.726 123.853 147.726 123.853C147.726 123.853 160.399 133.058 163.6 135.413C167.829 138.521 172.84 144.037 172.84 144.037C172.84 144.037 189.66 151.624 194.3 155.794L188.024 170.653C188.024 170.653 172.73 160.405 171.204 157.806C169.679 155.208 168.148 156.768 166.616 155.069C165.085 153.369 163.618 151.426 163.618 151.426C160.894 150.111 158.423 148.329 156.316 146.16C152.743 142.489 149.593 136.88 147.616 133.504C146.592 131.656 145.293 129.975 143.764 128.516Z" fill="white" stroke="#263238" stroke-linecap="round" stroke-linejoin="round"/>
<path d="M144.698 126.347C144.698 126.347 140.134 125.239 139.739 122.229C139.565 121.466 139.231 120.748 138.759 120.124C138.759 120.124 134.502 119.915 134.769 118.181L140.453 117.676C142.522 118.471 144.264 119.938 145.4 121.841" fill="white"/>
<path d="M144.698 126.347C144.698 126.347 140.134 125.239 139.739 122.229C139.565 121.466 139.231 120.748 138.759 120.124C138.759 120.124 134.502 119.915 134.769 118.181L140.453 117.676C142.522 118.471 144.264 119.938 145.4 121.841" stroke="#263238" stroke-linecap="round" stroke-linejoin="round"/>
<path d="M136.799 125.112C137.001 124.736 137.069 124.302 136.99 123.882C136.99 123.882 138.243 123.65 138.104 122.542C138.104 122.542 139.96 122.316 138.759 120.124" stroke="#263238" stroke-linecap="round" stroke-linejoin="round"/>
<path d="M138.104 122.542C138.104 122.542 135.605 120.692 135.326 119.845" stroke="#263238" stroke-linecap="round" stroke-linejoin="round"/>
<path d="M136.99 123.882C136.99 123.882 134.328 122.258 134.281 121.313" stroke="#263238" stroke-linecap="round" stroke-linejoin="round"/>
<path d="M137.599 115.542C137.599 115.542 136.752 117.061 135.349 117.38" stroke="#263238" stroke-linecap="round" stroke-linejoin="round"/>
<path d="M137.176 116.133C137.621 116.366 138.041 116.644 138.429 116.963" stroke="#263238" stroke-linecap="round" stroke-linejoin="round"/>
<path d="M234.39 167.504C227.827 164.726 221.057 162.465 214.142 160.741C203.957 158.357 187.462 156.229 187.462 156.229C187.462 156.229 191.998 202.513 190.803 205.297C189.608 208.081 182.439 217.43 182.439 217.43C182.439 217.43 221.236 232.557 227.998 233.844C234.761 235.132 231.235 211.659 231.235 211.659C231.235 211.659 238.38 181.824 234.39 167.504Z" fill="#263238"/>
<path d="M220.464 162.533C220.464 162.533 221.386 164.273 218.962 165.184C212.681 167.504 205.987 165.457 206.701 162.997C206.973 162.058 208.528 162.997 208.441 159.517C208.398 158.981 208.254 158.458 208.017 157.975C207.574 157.033 207.04 156.138 206.422 155.301C205.752 154.369 205.034 153.473 204.271 152.615C204.271 152.615 214.241 146.235 221.636 152.615C221.624 152.586 218.875 153.978 220.464 162.533Z" fill="white" stroke="#263238" stroke-linecap="round" stroke-linejoin="round"/>
<path d="M232.818 244.969C228.891 251.349 208.968 254.371 198.093 254.086C187.218 253.802 155.927 239.006 153.804 235.851C151.838 232.951 147.007 223.341 154.454 217.535C155.086 217.047 155.757 216.612 156.461 216.236C161.559 213.475 195.466 222.181 195.466 222.181C195.466 222.181 197.565 220.852 198.337 220.951C200.703 221.253 202.397 223.167 207.176 224.53C210.522 225.487 219.657 221.809 225.492 224.97C226.14 225.317 226.737 225.75 227.267 226.258C232.719 231.466 236.738 238.571 232.818 244.969Z" fill="#FFB600"/>
<mask id="mask0_165_718" style="mask-type:luminance" maskUnits="userSpaceOnUse" x="150" y="215" width="85" height="40">
<path d="M232.818 244.969C228.891 251.349 208.968 254.371 198.093 254.086C187.218 253.802 155.927 239.006 153.804 235.851C151.838 232.951 147.007 223.341 154.454 217.535C155.086 217.047 155.757 216.612 156.461 216.236C161.559 213.475 195.466 222.181 195.466 222.181C195.466 222.181 197.565 220.852 198.337 220.951C200.703 221.253 202.397 223.167 207.176 224.53C210.522 225.487 219.657 221.809 225.492 224.97C226.14 225.317 226.737 225.75 227.267 226.258C232.719 231.466 236.738 238.571 232.818 244.969Z" fill="white"/>
</mask>
<g mask="url(#mask0_165_718)">
<path opacity="0.3" d="M225.493 224.97C219.513 224.57 214.182 225.823 210.459 228.021C206.045 230.631 185.2 240.671 185.2 240.671C185.246 239.592 186.406 237.417 186.406 237.417C184.446 235.677 179.319 234.314 179.319 234.314C175.346 230.921 159.599 220.8 154.454 217.535C155.086 217.047 155.757 216.612 156.461 216.236C161.559 213.475 195.466 222.181 195.466 222.181C195.466 222.181 197.566 220.852 198.337 220.951C200.703 221.253 202.397 223.167 207.176 224.53C210.54 225.487 219.658 221.809 225.493 224.97Z" fill="black" fill-opacity="0.7"/>
</g>
<path d="M232.818 244.969C228.891 251.349 208.968 254.371 198.093 254.086C187.218 253.802 155.927 239.006 153.804 235.851C151.838 232.951 147.007 223.341 154.454 217.535C155.086 217.047 155.757 216.612 156.461 216.236C161.559 213.475 195.466 222.181 195.466 222.181C195.466 222.181 197.565 220.852 198.337 220.951C200.703 221.253 202.397 223.167 207.176 224.53C210.522 225.487 219.657 221.809 225.492 224.97C226.14 225.317 226.737 225.75 227.267 226.258C232.719 231.466 236.738 238.571 232.818 244.969Z" stroke="#263238" stroke-linecap="round" stroke-linejoin="round"/>
<path d="M226.704 250.746L227.203 252.932C227.203 252.932 225.869 256.714 220.005 257.334C214.142 257.955 210.667 259.248 207.825 259.417C206.34 259.534 204.846 259.511 203.365 259.347L202.785 258.489L226.704 250.746Z" fill="white" stroke="#263238" stroke-linecap="round" stroke-linejoin="round"/>
<path d="M192.653 250.514L202.815 258.489C207.713 258.07 212.579 257.342 217.385 256.308C222.199 255.194 226.404 253.599 226.63 251.407C226.984 248.078 223.422 247.167 219.194 247.295C218.405 247.295 217.593 247.376 216.776 247.457C210.007 248.182 201.4 244.447 201.4 244.447L192.653 250.514Z" fill="#263238"/>
<mask id="mask1_165_718" style="mask-type:luminance" maskUnits="userSpaceOnUse" x="192" y="244" width="35" height="15">
<path d="M192.653 250.514L202.815 258.489C207.713 258.07 212.579 257.342 217.385 256.308C222.199 255.194 226.404 253.599 226.63 251.407C226.984 248.078 223.422 247.167 219.194 247.295C218.405 247.295 217.593 247.376 216.776 247.457C210.007 248.182 201.4 244.447 201.4 244.447L192.653 250.514Z" fill="white"/>
</mask>
<g mask="url(#mask1_165_718)">
<path opacity="0.3" d="M226.636 251.326C224.663 252.059 222.77 252.992 220.986 254.11C220.986 254.11 211.55 258.964 197.044 253.965L192.653 250.514L201.4 244.441C201.4 244.441 210.001 248.182 216.776 247.451C217.593 247.364 218.405 247.306 219.194 247.289C223.393 247.161 226.926 248.054 226.636 251.326Z" fill="black" fill-opacity="0.7"/>
</g>
<path d="M192.653 250.514L202.815 258.489C207.713 258.07 212.579 257.342 217.385 256.308C222.199 255.194 226.404 253.599 226.63 251.407C226.984 248.078 223.422 247.167 219.194 247.295C218.405 247.295 217.593 247.376 216.776 247.457C210.007 248.182 201.4 244.447 201.4 244.447L192.653 250.514Z" stroke="#263238" stroke-linecap="round" stroke-linejoin="round"/>
<path d="M202.124 253.657C200.291 253.953 202.304 257.717 204.786 256.557C207.269 255.397 203.957 253.356 202.124 253.657Z" fill="white"/>
<mask id="mask2_165_718" style="mask-type:luminance" maskUnits="userSpaceOnUse" x="201" y="253" width="5" height="4">
<path d="M202.124 253.657C200.291 253.953 202.304 257.717 204.786 256.557C207.269 255.397 203.957 253.356 202.124 253.657Z" fill="white"/>
</mask>
<g mask="url(#mask2_165_718)">
<path opacity="0.2" d="M205.563 255.96C204.236 255.798 202.917 255.568 201.614 255.27C201.266 254.533 201.347 253.779 202.124 253.657C203.661 253.402 206.248 254.823 205.563 255.96Z" fill="black" fill-opacity="0.7"/>
</g>
<path d="M202.124 253.657C200.291 253.953 202.304 257.717 204.786 256.557C207.269 255.397 203.957 253.356 202.124 253.657Z" stroke="#263238" stroke-linecap="round" stroke-linejoin="round"/>
<path d="M217.385 256.302C222.199 255.188 226.404 253.593 226.63 251.401C226.984 248.072 223.422 247.161 219.194 247.289C219.009 247.469 214.908 251.43 217.385 256.302Z" fill="white"/>
<mask id="mask3_165_718" style="mask-type:luminance" maskUnits="userSpaceOnUse" x="216" y="247" width="11" height="10">
<path d="M217.385 256.302C222.199 255.188 226.404 253.593 226.63 251.401C226.984 248.072 223.422 247.161 219.194 247.289C219.009 247.469 214.908 251.43 217.385 256.302Z" fill="white"/>
</mask>
<g mask="url(#mask3_165_718)">
<path opacity="0.3" d="M226.636 251.325C224.663 252.059 222.77 252.992 220.987 254.109C219.715 254.697 218.383 255.143 217.014 255.438C215.39 250.972 219.021 247.457 219.195 247.289C223.394 247.161 226.926 248.054 226.636 251.325Z" fill="black" fill-opacity="0.7"/>
</g>
<path d="M217.385 256.302C222.199 255.188 226.404 253.593 226.63 251.401C226.984 248.072 223.422 247.161 219.194 247.289C219.009 247.469 214.908 251.43 217.385 256.302Z" stroke="#263238" stroke-linecap="round" stroke-linejoin="round"/>
<path d="M213.951 252.167H213.98C214.046 252.17 214.112 252.16 214.174 252.137C214.236 252.115 214.293 252.08 214.341 252.035C214.39 251.99 214.429 251.936 214.457 251.876C214.484 251.816 214.5 251.751 214.502 251.685C214.666 250.26 215.275 248.923 216.242 247.863C216.288 247.817 216.325 247.762 216.351 247.701C216.376 247.64 216.389 247.575 216.389 247.509C216.389 247.443 216.376 247.378 216.351 247.318C216.325 247.257 216.288 247.202 216.242 247.155C216.147 247.063 216.02 247.011 215.888 247.011C215.756 247.011 215.629 247.063 215.534 247.155C214.397 248.389 213.691 249.958 213.522 251.627C213.51 251.755 213.548 251.883 213.628 251.983C213.708 252.083 213.824 252.149 213.951 252.167Z" fill="white" stroke="#263238" stroke-linecap="round" stroke-linejoin="round"/>
<path d="M211.938 252.3H211.979C212.045 252.302 212.11 252.29 212.172 252.266C212.233 252.242 212.289 252.206 212.337 252.16C212.384 252.114 212.422 252.059 212.448 251.999C212.475 251.938 212.488 251.873 212.489 251.807C212.604 250.359 213.141 248.976 214.032 247.828C214.081 247.778 214.119 247.719 214.143 247.653C214.168 247.588 214.178 247.518 214.174 247.448C214.171 247.378 214.152 247.31 214.121 247.248C214.089 247.185 214.045 247.13 213.991 247.086C213.937 247.042 213.874 247.009 213.807 246.99C213.74 246.971 213.669 246.967 213.6 246.976C213.531 246.986 213.464 247.01 213.405 247.047C213.345 247.084 213.294 247.133 213.255 247.19C212.219 248.51 211.603 250.11 211.486 251.784C211.481 251.911 211.525 252.036 211.609 252.132C211.693 252.228 211.811 252.288 211.938 252.3Z" fill="white" stroke="#263238" stroke-linecap="round" stroke-linejoin="round"/>
<path d="M209.531 252.033C209.596 252.04 209.663 252.033 209.726 252.014C209.788 251.994 209.847 251.963 209.898 251.921C209.948 251.879 209.99 251.827 210.021 251.769C210.051 251.71 210.07 251.646 210.076 251.581C210.233 249.841 211.729 247.561 211.746 247.521C211.82 247.409 211.846 247.273 211.82 247.141C211.794 247.01 211.718 246.894 211.607 246.819C211.496 246.746 211.361 246.719 211.231 246.746C211.1 246.772 210.986 246.848 210.911 246.958C210.842 247.057 209.252 249.446 209.073 251.465C209.064 251.532 209.069 251.601 209.087 251.667C209.106 251.733 209.137 251.794 209.18 251.847C209.223 251.9 209.276 251.944 209.336 251.976C209.397 252.008 209.463 252.028 209.531 252.033Z" fill="white" stroke="#263238" stroke-linecap="round" stroke-linejoin="round"/>
<path d="M207.257 251.795C207.301 251.801 207.346 251.801 207.39 251.795C207.456 251.785 207.518 251.761 207.575 251.726C207.631 251.692 207.679 251.646 207.718 251.592C207.756 251.538 207.783 251.477 207.798 251.412C207.812 251.347 207.814 251.281 207.802 251.215C207.448 249.081 209.432 247.254 209.449 247.237C209.515 247.144 209.547 247.032 209.541 246.918C209.535 246.805 209.491 246.697 209.416 246.611C209.341 246.526 209.239 246.469 209.127 246.449C209.015 246.428 208.9 246.446 208.8 246.5C208.701 246.587 206.387 248.71 206.834 251.395C206.855 251.497 206.907 251.59 206.983 251.662C207.058 251.733 207.154 251.78 207.257 251.795Z" fill="white" stroke="#263238" stroke-linecap="round" stroke-linejoin="round"/>
<path d="M204.787 251.198C204.841 251.207 204.896 251.207 204.949 251.198C205.074 251.168 205.183 251.091 205.253 250.983C205.323 250.875 205.349 250.745 205.326 250.618C204.891 248.716 206.765 246.558 206.788 246.558C206.875 246.458 206.919 246.327 206.91 246.195C206.901 246.062 206.841 245.939 206.742 245.85C206.693 245.806 206.635 245.772 206.573 245.751C206.511 245.729 206.445 245.719 206.379 245.723C206.314 245.727 206.249 245.744 206.19 245.773C206.131 245.801 206.078 245.842 206.034 245.891C205.941 245.995 203.795 248.449 204.346 250.862C204.378 250.955 204.437 251.037 204.516 251.097C204.594 251.157 204.688 251.192 204.787 251.198Z" fill="white" stroke="#263238" stroke-linecap="round" stroke-linejoin="round"/>
<path d="M152.54 247.474L151.815 249.597C151.815 249.597 152.743 253.501 158.509 254.73C164.274 255.96 167.591 257.63 170.375 258.083C171.841 258.352 173.328 258.484 174.818 258.477L175.485 257.682L152.54 247.474Z" fill="white" stroke="#263238" stroke-linecap="round" stroke-linejoin="round"/>
<path d="M186.406 250.821L175.467 257.682C170.64 256.752 165.876 255.518 161.205 253.988C156.536 252.375 152.505 250.345 152.505 248.141C152.505 244.789 156.141 244.261 160.335 244.83C161.118 244.934 161.918 245.079 162.724 245.247C169.377 246.68 178.326 243.867 178.326 243.867L186.406 250.821Z" fill="#263238"/>
<mask id="mask4_165_718" style="mask-type:luminance" maskUnits="userSpaceOnUse" x="152" y="243" width="35" height="15">
<path d="M186.406 250.821L175.467 257.682C170.64 256.752 165.876 255.518 161.205 253.988C156.536 252.375 152.505 250.345 152.505 248.141C152.505 244.789 156.141 244.261 160.335 244.83C161.118 244.934 161.918 245.079 162.724 245.247C169.377 246.68 178.326 243.867 178.326 243.867L186.406 250.821Z" fill="white"/>
</mask>
<g mask="url(#mask4_165_718)">
<path opacity="0.3" d="M186.406 250.821L179.974 254.881C174.758 253.261 170.184 250.041 166.9 245.676C170.778 245.591 174.626 244.988 178.344 243.884L186.406 250.821Z" fill="black" fill-opacity="0.7"/>
</g>
<path d="M186.406 250.821L175.467 257.682C170.64 256.752 165.876 255.518 161.205 253.988C156.536 252.375 152.505 250.345 152.505 248.141C152.505 244.789 156.141 244.261 160.335 244.83C161.118 244.934 161.918 245.079 162.724 245.247C169.377 246.68 178.326 243.867 178.326 243.867L186.406 250.821Z" stroke="#263238" stroke-linecap="round" stroke-linejoin="round"/>
<path d="M161.205 253.982C156.536 252.37 152.505 250.34 152.505 248.136C152.505 244.783 156.141 244.255 160.335 244.824C160.52 245.021 164.18 249.4 161.205 253.982Z" fill="white" stroke="#263238" stroke-linecap="round" stroke-linejoin="round"/>
<path d="M165.057 250.229H165.028C164.894 250.22 164.77 250.16 164.681 250.06C164.592 249.96 164.546 249.829 164.552 249.696C164.543 248.264 164.082 246.872 163.236 245.717C163.186 245.666 163.148 245.606 163.124 245.539C163.099 245.473 163.089 245.402 163.094 245.332C163.099 245.261 163.118 245.192 163.151 245.13C163.184 245.067 163.23 245.012 163.285 244.969C163.341 244.925 163.405 244.893 163.474 244.876C163.542 244.859 163.614 244.856 163.683 244.868C163.753 244.88 163.819 244.907 163.878 244.946C163.937 244.985 163.987 245.037 164.024 245.096C165.025 246.436 165.563 248.064 165.556 249.736C165.554 249.868 165.501 249.993 165.407 250.085C165.314 250.178 165.188 250.229 165.057 250.229Z" fill="white" stroke="#263238" stroke-linecap="round" stroke-linejoin="round"/>
<path d="M167.04 250.56H166.994C166.861 250.548 166.738 250.484 166.652 250.382C166.566 250.28 166.524 250.148 166.536 250.015C166.577 248.565 166.192 247.135 165.428 245.903C165.39 245.848 165.363 245.786 165.349 245.721C165.334 245.655 165.333 245.588 165.345 245.522C165.357 245.457 165.381 245.394 165.418 245.338C165.454 245.282 165.5 245.233 165.555 245.195C165.61 245.157 165.672 245.13 165.737 245.116C165.802 245.102 165.87 245.1 165.936 245.112C166.001 245.124 166.064 245.149 166.12 245.185C166.176 245.221 166.225 245.268 166.263 245.323C167.159 246.743 167.604 248.401 167.539 250.079C167.533 250.207 167.478 250.329 167.385 250.418C167.293 250.508 167.169 250.559 167.04 250.56Z" fill="white" stroke="#263238" stroke-linecap="round" stroke-linejoin="round"/>
<path d="M169.465 250.56C169.331 250.557 169.204 250.502 169.111 250.406C169.018 250.311 168.966 250.183 168.966 250.05C169.001 248.281 167.748 245.885 167.73 245.862C167.669 245.743 167.657 245.604 167.697 245.476C167.737 245.348 167.826 245.241 167.945 245.178C168.064 245.116 168.201 245.105 168.329 245.145C168.456 245.185 168.562 245.274 168.624 245.392C168.682 245.497 170.01 248.037 169.975 250.067C169.972 250.2 169.917 250.326 169.821 250.418C169.726 250.511 169.597 250.562 169.465 250.56Z" fill="white" stroke="#263238" stroke-linecap="round" stroke-linejoin="round"/>
<path d="M171.749 250.56H171.616C171.488 250.524 171.379 250.438 171.314 250.321C171.249 250.205 171.232 250.068 171.268 249.939C171.848 247.857 170.067 245.827 170.05 245.81C170 245.762 169.96 245.704 169.933 245.64C169.906 245.576 169.893 245.507 169.894 245.437C169.895 245.368 169.91 245.299 169.939 245.236C169.968 245.173 170.009 245.116 170.061 245.069C170.112 245.023 170.173 244.988 170.239 244.966C170.305 244.944 170.375 244.936 170.444 244.942C170.514 244.948 170.581 244.969 170.642 245.003C170.703 245.036 170.756 245.082 170.798 245.137C170.885 245.236 172.967 247.59 172.237 250.212C172.202 250.314 172.137 250.402 172.049 250.465C171.962 250.527 171.857 250.561 171.749 250.56Z" fill="white" stroke="#263238" stroke-linecap="round" stroke-linejoin="round"/>
<path d="M174.273 250.229C174.217 250.232 174.162 250.222 174.111 250.2C174.047 250.18 173.989 250.147 173.939 250.104C173.888 250.061 173.847 250.008 173.818 249.948C173.789 249.888 173.772 249.824 173.768 249.757C173.765 249.691 173.775 249.625 173.797 249.562C174.43 247.718 172.788 245.381 172.777 245.357C172.729 245.304 172.693 245.242 172.672 245.174C172.65 245.107 172.643 245.035 172.651 244.964C172.658 244.894 172.681 244.825 172.717 244.764C172.753 244.703 172.802 244.65 172.86 244.609C172.918 244.568 172.984 244.539 173.054 244.525C173.124 244.512 173.196 244.513 173.265 244.529C173.334 244.545 173.4 244.575 173.456 244.618C173.513 244.661 173.56 244.715 173.594 244.777C173.676 244.888 175.549 247.556 174.754 249.899C174.718 249.997 174.652 250.081 174.566 250.14C174.479 250.199 174.377 250.23 174.273 250.229Z" fill="white" stroke="#263238" stroke-linecap="round" stroke-linejoin="round"/>
<path d="M176.656 252.95C178.448 253.443 176.076 256.952 173.704 255.56C171.332 254.168 174.87 252.462 176.656 252.95Z" fill="white" stroke="#263238" stroke-linecap="round" stroke-linejoin="round"/>
<path d="M155.974 234.32C158.659 238.084 166.622 242.243 174.534 245.671C175.949 248.014 177.617 250.195 179.51 252.172C184.394 257.195 186.383 254.382 186.383 254.382C186.383 254.382 189.469 254.034 194.022 253.414C194.211 253.855 194.542 254.222 194.961 254.456C195.381 254.69 195.866 254.778 196.342 254.707C196.922 254.614 198.082 253.767 199.363 252.648C210.865 250.908 226.473 248.008 230.683 244.632" fill="#FFB600"/>
<path d="M155.974 234.32C158.659 238.084 166.622 242.243 174.534 245.671C175.949 248.014 177.617 250.195 179.51 252.172C184.394 257.195 186.383 254.382 186.383 254.382C186.383 254.382 189.469 254.034 194.022 253.414C194.211 253.855 194.542 254.222 194.961 254.456C195.381 254.69 195.866 254.778 196.342 254.707C196.922 254.614 198.082 253.767 199.363 252.648C210.865 250.908 226.473 248.008 230.683 244.632" stroke="#263238" stroke-linecap="round" stroke-linejoin="round"/>
<path d="M226.2 227.151C224.211 224.965 222.221 224.866 218.045 225.162C218.045 225.162 207.147 228.642 199.543 233.218C191.94 237.794 180.85 242.649 180.85 242.649C180.85 242.649 177.469 241.669 175.114 242.649C175.114 242.649 173.461 242.776 174.569 245.665" stroke="#263238" stroke-linecap="round" stroke-linejoin="round"/>
<path d="M231.257 240.219C231.257 240.219 231.315 243.588 226.536 245.92" stroke="#263238" stroke-linecap="round" stroke-linejoin="round"/>
<path d="M178.547 226.159C178.547 226.159 186.087 231.611 187.601 235.207C189.083 235.832 190.514 236.571 191.881 237.417" stroke="#263238" stroke-linecap="round" stroke-linejoin="round"/>
<path d="M188.146 230.689C188.699 232.256 188.792 233.949 188.413 235.567" stroke="#263238" stroke-linecap="round" stroke-linejoin="round"/>
<path d="M186.406 227.151C186.817 227.749 187.178 228.379 187.485 229.036" stroke="#263238" stroke-linecap="round" stroke-linejoin="round"/>
<path d="M197.147 226.652C197.147 226.652 199.67 230.028 200.297 232.766" stroke="#263238" stroke-linecap="round" stroke-linejoin="round"/>
<path d="M211.201 247.045C212.14 246.99 213.073 246.874 213.997 246.697" stroke="#263238" stroke-linecap="round" stroke-linejoin="round"/>
<path d="M187.531 244.627C194.681 246.043 201.933 246.875 209.217 247.115" stroke="#263238" stroke-linecap="round" stroke-linejoin="round"/>
<path d="M238.566 193.482C238.566 193.482 237.203 217.262 235.596 218.625C233.99 219.988 231.455 220.412 226.659 220.812C221.862 221.212 200.646 222.511 200.646 222.511L198.36 215.696C198.36 215.696 209.641 214.536 214.647 212.709C218.421 211.419 222.282 210.4 226.2 209.658C226.2 209.658 225.249 203.679 225.249 201.103V188.993" fill="white"/>
<path d="M238.566 193.482C238.566 193.482 237.203 217.262 235.596 218.625C233.99 219.988 231.455 220.412 226.659 220.812C221.862 221.212 200.646 222.511 200.646 222.511L198.36 215.696C198.36 215.696 209.641 214.536 214.647 212.709C218.421 211.419 222.282 210.4 226.2 209.658C226.2 209.658 225.249 203.679 225.249 201.103V188.993" stroke="#263238" stroke-linecap="round" stroke-linejoin="round"/>
<path d="M234.39 167.504C239.558 170.688 241.083 178.048 239.297 193.761C239.297 193.761 240.822 195.617 238.566 196.545C238.566 196.545 230.115 193.384 226.189 195.564C222.262 197.745 223.289 192.554 223.289 192.554C223.289 192.554 221.671 178.101 225.249 175.485" fill="#263238"/>
<path d="M224.773 173.275C224.773 173.275 219.803 178.443 224.193 191.504C223.916 192.57 223.723 193.656 223.613 194.752C223.613 195.628 224.814 196.081 224.814 196.081" stroke="white" stroke-linecap="round" stroke-linejoin="round"/>
<path d="M218.962 182.027C218.962 182.027 219.322 188.407 223.277 191.174" stroke="white" stroke-linecap="round" stroke-linejoin="round"/>
<path d="M220.238 167.214C220.238 167.214 212.53 170.166 206.399 166.895C202.763 164.958 204.259 161.843 204.259 161.843" stroke="white" stroke-linecap="round" stroke-linejoin="round"/>
<path d="M164.807 227.163H206.764C207.712 227.163 208.655 227.04 209.571 226.797L217.848 224.628C217.962 224.599 218.064 224.532 218.136 224.438C218.209 224.345 218.248 224.23 218.248 224.112C218.248 223.969 218.191 223.832 218.09 223.731C217.989 223.629 217.852 223.573 217.709 223.573H163.073C162.931 223.574 162.795 223.632 162.695 223.733C162.595 223.834 162.539 223.97 162.539 224.112V224.895C162.539 225.496 162.778 226.073 163.203 226.499C163.629 226.924 164.205 227.163 164.807 227.163Z" fill="#757575" stroke="#263238" stroke-linecap="round" stroke-linejoin="round"/>
<path d="M160.66 225.075H202.733C202.898 225.082 203.062 225.049 203.21 224.978C203.359 224.906 203.488 224.799 203.585 224.666C203.682 224.532 203.745 224.377 203.767 224.214C203.789 224.05 203.771 223.884 203.713 223.729L195.912 193.378C195.808 193.005 195.589 192.675 195.288 192.433C194.986 192.19 194.616 192.048 194.23 192.026H152.145C151.98 192.02 151.816 192.054 151.668 192.126C151.519 192.199 151.391 192.306 151.294 192.44C151.197 192.574 151.134 192.729 151.112 192.893C151.089 193.056 151.108 193.223 151.165 193.378L158.972 223.729C159.076 224.102 159.295 224.433 159.598 224.675C159.901 224.916 160.273 225.056 160.66 225.075Z" fill="#999999" stroke="#263238" stroke-linecap="round" stroke-linejoin="round"/>
<path d="M153.631 193.105H152.836" stroke="#263238" stroke-linecap="round" stroke-linejoin="round"/>
<path d="M159.796 193.105H155.689" stroke="#263238" stroke-linecap="round" stroke-linejoin="round"/>
<path d="M201.712 221.241L194.822 194.457C194.718 194.085 194.501 193.754 194.201 193.512C193.9 193.27 193.531 193.127 193.146 193.105H160.724" stroke="#263238" stroke-linecap="round" stroke-linejoin="round"/>
<path d="M202.31 223.573L202.136 222.906" stroke="#263238" stroke-linecap="round" stroke-linejoin="round"/>
<path d="M173.31 209.316C173.338 209.562 173.389 209.805 173.46 210.041C173.994 211.868 175.705 212.982 177.277 212.518C178.849 212.054 179.69 210.198 179.156 208.371C178.622 206.544 176.9 205.43 175.328 205.894C175.144 205.95 174.967 206.026 174.8 206.12C174.887 206.74 174.792 207.372 174.527 207.939C174.263 208.506 173.84 208.984 173.31 209.316Z" fill="white" stroke="#263238" stroke-linecap="round" stroke-linejoin="round"/>
<path d="M191.881 152.436C188.239 152.041 186.255 148.579 184.063 148.039C182.84 147.746 181.641 147.359 180.478 146.879C180.478 146.879 179.724 144.246 178.593 145.139C177.462 146.032 175.978 165.729 177.433 165.109C178.889 164.488 178.895 166.814 178.895 166.814L192.415 178.727L203.748 158.659C203.748 158.659 195.524 152.836 191.881 152.436Z" fill="#263238"/>
<path d="M81.7109 82.2962V82.0062H82.0009" stroke="#263238" stroke-linecap="round" stroke-linejoin="round"/>
<path d="M83.7061 82.0062H132.774" stroke="#263238" stroke-linecap="round" stroke-linejoin="round" stroke-dasharray="0.98 2.93"/>
<path d="M133.62 82.0062H133.91V82.2962" stroke="#263238" stroke-linecap="round" stroke-linejoin="round"/>
<path d="M133.916 84.0362V115.646" stroke="#263238" stroke-linecap="round" stroke-linejoin="round" stroke-dasharray="1 3"/>
<path d="M133.91 116.516V116.806H133.62" stroke="#263238" stroke-linecap="round" stroke-linejoin="round"/>
<path d="M131.922 116.806H82.8535" stroke="#263238" stroke-linecap="round" stroke-linejoin="round" stroke-dasharray="0.98 2.93"/>
<path d="M82.0009 116.806H81.7109V116.516" stroke="#263238" stroke-linecap="round" stroke-linejoin="round"/>
<path d="M81.7158 114.776V83.1662" stroke="#263238" stroke-linecap="round" stroke-linejoin="round" stroke-dasharray="1 3"/>
<path d="M107.816 82.8646C108.29 82.8646 108.675 82.4803 108.675 82.0062C108.675 81.5321 108.29 81.1478 107.816 81.1478C107.342 81.1478 106.958 81.5321 106.958 82.0062C106.958 82.4803 107.342 82.8646 107.816 82.8646Z" fill="#FFB600" stroke="#263238" stroke-linecap="round" stroke-linejoin="round"/>
<path d="M81.7158 100.265C82.1899 100.265 82.5742 99.8803 82.5742 99.4062C82.5742 98.9321 82.1899 98.5478 81.7158 98.5478C81.2417 98.5478 80.8574 98.9321 80.8574 99.4062C80.8574 99.8803 81.2417 100.265 81.7158 100.265Z" fill="#FFB600" stroke="#263238" stroke-linecap="round" stroke-linejoin="round"/>
<path d="M107.816 117.665C108.29 117.665 108.675 117.28 108.675 116.806C108.675 116.332 108.29 115.948 107.816 115.948C107.342 115.948 106.958 116.332 106.958 116.806C106.958 117.28 107.342 117.665 107.816 117.665Z" fill="#FFB600" stroke="#263238" stroke-linecap="round" stroke-linejoin="round"/>
<path d="M133.916 100.265C134.39 100.265 134.774 99.8803 134.774 99.4062C134.774 98.9321 134.39 98.5478 133.916 98.5478C133.442 98.5478 133.058 98.9321 133.058 99.4062C133.058 99.8803 133.442 100.265 133.916 100.265Z" fill="#FFB600" stroke="#263238" stroke-linecap="round" stroke-linejoin="round"/>
<path d="M134.914 115.809H132.913V117.81H134.914V115.809Z" fill="#FFB600" stroke="#263238" stroke-linecap="round" stroke-linejoin="round"/>
<path d="M134.914 81.0086H132.913V83.0096H134.914V81.0086Z" fill="#FFB600" stroke="#263238" stroke-linecap="round" stroke-linejoin="round"/>
<path d="M82.7139 115.809H80.7129V117.81H82.7139V115.809Z" fill="#FFB600" stroke="#263238" stroke-linecap="round" stroke-linejoin="round"/>
<path d="M82.7139 81.0086H80.7129V83.0096H82.7139V81.0086Z" fill="#FFB600" stroke="#263238" stroke-linecap="round" stroke-linejoin="round"/>
<path d="M130.61 85.086H85.1787V113.953H130.61V85.086Z" fill="white" stroke="#263238" stroke-linecap="round" stroke-linejoin="round"/>
<path d="M130.61 105.427L125.558 110.478L111.894 96.8136L106.146 102.561L96.9817 93.3974L85.1787 105.195V113.953H130.61V105.427Z" fill="#FFB600" stroke="#263238" stroke-linecap="round" stroke-linejoin="round"/>
<path d="M121.197 96.4888C122.968 96.4888 124.404 95.0528 124.404 93.2814C124.404 91.51 122.968 90.074 121.197 90.074C119.425 90.074 117.989 91.51 117.989 93.2814C117.989 95.0528 119.425 96.4888 121.197 96.4888Z" fill="#FFB600" stroke="#263238" stroke-linecap="round" stroke-linejoin="round"/>
<path d="M194.3 157.76C194.3 157.76 190.82 164.239 190.408 174.151" stroke="white" stroke-linecap="round" stroke-linejoin="round"/>
<path d="M184.069 162.243C184.069 162.243 185.108 167.753 188.129 171.744" stroke="white" stroke-linecap="round" stroke-linejoin="round"/>
<path d="M198.36 184.979C198.36 184.979 203.58 202.124 214.919 207.17" stroke="white" stroke-linecap="round" stroke-linejoin="round"/>
<path d="M212.094 153.944C212.094 153.944 211.601 157.685 208.005 157.946C207.562 157.004 207.028 156.109 206.41 155.272C208.277 154.719 210.175 154.276 212.094 153.944Z" fill="#263238"/>
<path d="M219.756 154.205C219.756 154.205 225.771 154.941 228.288 146.868C230.805 138.794 228.827 132.71 218.875 129.781C213.353 128.157 207.855 129.462 205.842 133.644C204.137 137.222 204.943 140.198 204.554 141.398C204.114 142.744 200.042 143.886 200.042 144.809C200.042 145.568 202.298 146.868 202.298 146.868L201.637 148.874L202.258 149.205C202.258 149.205 201.098 153.723 201.637 155.318C202.02 156.478 212.21 156.965 213.005 154.077" fill="white"/>
<path d="M219.756 154.205C219.756 154.205 225.771 154.941 228.288 146.868C230.805 138.794 228.827 132.71 218.875 129.781C213.353 128.157 207.855 129.462 205.842 133.644C204.137 137.222 204.943 140.198 204.554 141.398C204.114 142.744 200.042 143.886 200.042 144.809C200.042 145.568 202.298 146.868 202.298 146.868L201.637 148.874L202.258 149.205C202.258 149.205 201.098 153.723 201.637 155.318C202.02 156.478 212.21 156.965 213.005 154.077" stroke="#263238" stroke-linecap="round" stroke-linejoin="round"/>
<path d="M205.9 136.573C205.9 136.573 207.89 137.071 208.435 138.115" stroke="#263238" stroke-linecap="round" stroke-linejoin="round"/>
<path d="M206.248 141.16C206.161 141.74 206.295 142.245 206.55 142.28C206.805 142.315 207.072 141.874 207.159 141.288C207.246 140.702 207.107 140.203 206.857 140.169C206.608 140.134 206.335 140.575 206.248 141.16Z" fill="#263238"/>
<path d="M202.258 149.205C202.258 149.205 205.494 150.446 206.701 149.698" stroke="#263238" stroke-linecap="round" stroke-linejoin="round"/>
<path d="M203.395 140.696C203.157 141.996 203.447 143.132 204.044 143.243C204.642 143.353 205.326 142.396 205.564 141.102C205.802 139.809 205.517 138.661 204.914 138.55C204.311 138.44 203.638 139.403 203.395 140.696Z" stroke="#263238" stroke-linecap="round" stroke-linejoin="round"/>
<path d="M228.554 134.09C228.07 131.74 226.72 129.657 224.773 128.255C222.602 126.731 220.116 125.714 217.5 125.28C217.5 125.28 219.419 126.121 220.15 127.229C220.15 127.229 215.18 123.494 209.275 125.947C203.371 128.4 204.107 134.775 204.107 134.775L204.966 133.104C204.966 133.104 204.867 135.094 205.911 135.824C206.224 134.85 206.65 133.915 207.181 133.04C207.181 133.04 208.747 137.744 213.057 139.339C212.764 138.598 212.74 137.777 212.987 137.019C212.987 137.019 215.377 142.187 214.681 144.71L215.441 146.032C215.441 146.032 218.184 143.254 220.417 145.568C221.699 146.902 217.964 151.948 217.43 151.948L219.686 155.26C219.686 155.26 225.324 156.066 228.572 149.959C231.82 143.852 231.025 141.259 231.025 141.259C231.025 141.259 232.087 142.744 232.185 143.579C232.197 143.567 233.16 137.008 228.554 134.09Z" fill="#263238"/>
<path d="M215.29 146.618C215.29 146.618 217.03 140.772 220.73 142.831C224.431 144.89 221.792 148.01 220.464 149.211C219.135 150.411 218.144 152.592 217.279 152.592C216.415 152.592 216.224 151.531 216.224 151.531" fill="white"/>
<path d="M215.29 146.618C215.29 146.618 217.03 140.772 220.73 142.831C224.431 144.89 221.792 148.01 220.464 149.211C219.135 150.411 218.144 152.592 217.279 152.592C216.415 152.592 216.224 151.531 216.224 151.531" stroke="#263238" stroke-linecap="round" stroke-linejoin="round"/>
<path d="M205.563 141.102L215.887 143.243" stroke="#263238" stroke-linecap="round" stroke-linejoin="round"/>
</svg>
